<svg xmlns="http://www.w3.org/2000/svg" xmlns:xlink="http://www.w3.org/1999/xlink" width="1920" zoomAndPan="magnify" viewBox="0 0 1440 809.999993" height="1080" preserveAspectRatio="xMidYMid meet" version="1.0"><defs><clipPath id="c56fbe5415"><path d="M 0 728 L 89 728 L 89 810 L 0 810 Z M 0 728 " clip-rule="nonzero"/></clipPath><clipPath id="3ef02f1287"><path d="M 37.679688 588.398438 L 297.710938 789.136719 L 135.011719 999.894531 L -125.019531 799.15625 Z M 37.679688 588.398438 " clip-rule="nonzero"/></clipPath><clipPath id="f591bcf276"><path d="M 37.679688 588.398438 L 297.710938 789.136719 L 135.011719 999.894531 L -125.019531 799.15625 Z M 37.679688 588.398438 " clip-rule="nonzero"/></clipPath><clipPath id="56de9f62e0"><path d="M 0 661 L 129 661 L 129 810 L 0 810 Z M 0 661 " clip-rule="nonzero"/></clipPath><clipPath id="e1846cd631"><path d="M 37.679688 588.398438 L 297.710938 789.136719 L 135.011719 999.894531 L -125.019531 799.15625 Z M 37.679688 588.398438 " clip-rule="nonzero"/></clipPath><clipPath id="177a85cd5f"><path d="M 37.679688 588.398438 L 297.710938 789.136719 L 135.011719 999.894531 L -125.019531 799.15625 Z M 37.679688 588.398438 " clip-rule="nonzero"/></clipPath><clipPath id="cdfadee103"><path d="M 138 766 L 216 766 L 216 810 L 138 810 Z M 138 766 " clip-rule="nonzero"/></clipPath><clipPath id="64d9cb8f69"><path d="M 37.679688 588.398438 L 297.710938 789.136719 L 135.011719 999.894531 L -125.019531 799.15625 Z M 37.679688 588.398438 " clip-rule="nonzero"/></clipPath><clipPath id="cb7a072ca2"><path d="M 37.679688 588.398438 L 297.710938 789.136719 L 135.011719 999.894531 L -125.019531 799.15625 Z M 37.679688 588.398438 " clip-rule="nonzero"/></clipPath><clipPath id="07709016a5"><path d="M 90 718 L 264 718 L 264 810 L 90 810 Z M 90 718 " clip-rule="nonzero"/></clipPath><clipPath id="2d6e3b8713"><path d="M 37.679688 588.398438 L 297.710938 789.136719 L 135.011719 999.894531 L -125.019531 799.15625 Z M 37.679688 588.398438 " clip-rule="nonzero"/></clipPath><clipPath id="57c5c8947c"><path d="M 37.679688 588.398438 L 297.710938 789.136719 L 135.011719 999.894531 L -125.019531 799.15625 Z M 37.679688 588.398438 " clip-rule="nonzero"/></clipPath><clipPath id="995818646c"><path d="M 112 740 L 129 740 L 129 810 L 112 810 Z M 112 740 " clip-rule="nonzero"/></clipPath><clipPath id="78c14aafec"><path d="M 37.679688 588.398438 L 297.710938 789.136719 L 135.011719 999.894531 L -125.019531 799.15625 Z M 37.679688 588.398438 " clip-rule="nonzero"/></clipPath><clipPath id="8889bbb015"><path d="M 37.679688 588.398438 L 297.710938 789.136719 L 135.011719 999.894531 L -125.019531 799.15625 Z M 37.679688 588.398438 " clip-rule="nonzero"/></clipPath><clipPath id="3c5b54a9f6"><path d="M 1380 0 L 1440 0 L 1440 89 L 1380 89 Z M 1380 0 " clip-rule="nonzero"/></clipPath><clipPath id="499f6e4740"><path d="M 1518.183594 206.515625 L 1195.105469 147.089844 L 1243.269531 -114.765625 L 1566.347656 -55.339844 Z M 1518.183594 206.515625 " clip-rule="nonzero"/></clipPath><clipPath id="380d151dfb"><path d="M 1518.183594 206.515625 L 1195.105469 147.089844 L 1243.269531 -114.765625 L 1566.347656 -55.339844 Z M 1518.183594 206.515625 " clip-rule="nonzero"/></clipPath><clipPath id="7f713ca0a4"><path d="M 1318 0 L 1440 0 L 1440 155 L 1318 155 Z M 1318 0 " clip-rule="nonzero"/></clipPath><clipPath id="e9e7b228d3"><path d="M 1518.183594 206.515625 L 1195.105469 147.089844 L 1243.269531 -114.765625 L 1566.347656 -55.339844 Z M 1518.183594 206.515625 " clip-rule="nonzero"/></clipPath><clipPath id="18600a9c7a"><path d="M 1518.183594 206.515625 L 1195.105469 147.089844 L 1243.269531 -114.765625 L 1566.347656 -55.339844 Z M 1518.183594 206.515625 " clip-rule="nonzero"/></clipPath><clipPath id="5a06ac6a1b"><path d="M 1257 39 L 1334 39 L 1334 117 L 1257 117 Z M 1257 39 " clip-rule="nonzero"/></clipPath><clipPath id="62b1d964a7"><path d="M 1518.183594 206.515625 L 1195.105469 147.089844 L 1243.269531 -114.765625 L 1566.347656 -55.339844 Z M 1518.183594 206.515625 " clip-rule="nonzero"/></clipPath><clipPath id="b3c3c39d45"><path d="M 1518.183594 206.515625 L 1195.105469 147.089844 L 1243.269531 -114.765625 L 1566.347656 -55.339844 Z M 1518.183594 206.515625 " clip-rule="nonzero"/></clipPath><clipPath id="35d1036ffa"><path d="M 1209 0 L 1382 0 L 1382 165 L 1209 165 Z M 1209 0 " clip-rule="nonzero"/></clipPath><clipPath id="02e1a58cd5"><path d="M 1518.183594 206.515625 L 1195.105469 147.089844 L 1243.269531 -114.765625 L 1566.347656 -55.339844 Z M 1518.183594 206.515625 " clip-rule="nonzero"/></clipPath><clipPath id="1e94020968"><path d="M 1518.183594 206.515625 L 1195.105469 147.089844 L 1243.269531 -114.765625 L 1566.347656 -55.339844 Z M 1518.183594 206.515625 " clip-rule="nonzero"/></clipPath><clipPath id="71df83e65a"><path d="M 1318 0 L 1378 0 L 1378 113 L 1318 113 Z M 1318 0 " clip-rule="nonzero"/></clipPath><clipPath id="a06d50ceb2"><path d="M 1518.183594 206.515625 L 1195.105469 147.089844 L 1243.269531 -114.765625 L 1566.347656 -55.339844 Z M 1518.183594 206.515625 " clip-rule="nonzero"/></clipPath><clipPath id="33bf085360"><path d="M 1518.183594 206.515625 L 1195.105469 147.089844 L 1243.269531 -114.765625 L 1566.347656 -55.339844 Z M 1518.183594 206.515625 " clip-rule="nonzero"/></clipPath><clipPath id="422366509c"><path d="M 1080.335938 334.648438 L 1440 334.648438 L 1440 468.554688 L 1080.335938 468.554688 Z M 1080.335938 334.648438 " clip-rule="nonzero"/></clipPath><clipPath id="bcfe74c24c"><path d="M 1080.335938 503.054688 L 1440 503.054688 L 1440 640.371094 L 1080.335938 640.371094 Z M 1080.335938 503.054688 " clip-rule="nonzero"/></clipPath></defs><rect x="-144" width="1728" fill="#ffffff" y="-80.999999" height="971.999992" fill-opacity="1"/><rect x="-144" width="1728" fill="#0c120c" y="-80.999999" height="971.999992" fill-opacity="1"/><g clip-path="url(#c56fbe5415)"><g clip-path="url(#3ef02f1287)"><g clip-path="url(#f591bcf276)"><path fill="#7662ee" d="M 68.511719 738.507812 C 68.503906 738.5 68.503906 738.5 68.511719 738.507812 C 57.519531 730.019531 44.074219 726.773438 31.3125 728.414062 C 18.5625 730.046875 6.359375 736.59375 -2.109375 747.585938 C -10.597656 758.578125 -13.84375 772.023438 -12.195312 784.773438 C -10.5625 797.527344 -4.015625 809.710938 6.96875 818.191406 C 6.96875 818.191406 6.976562 818.199219 6.976562 818.199219 C 17.96875 826.683594 31.414062 829.933594 44.164062 828.28125 C 56.917969 826.648438 69.121094 820.101562 77.589844 809.113281 L 72.691406 805.328125 L 67.792969 801.546875 C 61.371094 809.867188 52.238281 814.746094 42.585938 816.007812 C 32.921875 817.242188 22.859375 814.820312 14.539062 808.398438 C 6.222656 801.976562 1.339844 792.84375 0.0820312 783.195312 C -1.152344 773.53125 1.273438 763.457031 7.6875 755.148438 C 14.109375 746.832031 23.242188 741.949219 32.894531 740.691406 C 42.558594 739.457031 52.628906 741.882812 60.9375 748.296875 C 69.257812 754.71875 74.148438 763.839844 75.398438 773.503906 C 76.632812 783.164062 74.214844 793.230469 67.792969 801.546875 L 72.691406 805.328125 L 77.589844 809.113281 C 86.074219 798.117188 89.324219 784.675781 87.671875 771.921875 C 86.042969 759.167969 79.496094 746.984375 68.511719 738.507812 " fill-opacity="1" fill-rule="nonzero"/></g></g></g><g clip-path="url(#56de9f62e0)"><g clip-path="url(#e1846cd631)"><g clip-path="url(#177a85cd5f)"><path fill="#7662ee" d="M 128.25 743.324219 C 124.757812 734.277344 119.878906 725.710938 113.679688 717.9375 L 108.835938 721.800781 L 113.734375 725.582031 L 120.5 716.824219 C 123.3125 713.179688 124.402344 708.6875 123.855469 704.453125 C 123.320312 700.222656 121.128906 696.136719 117.476562 693.332031 L 99.808594 679.695312 C 96.164062 676.878906 91.671875 675.789062 87.4375 676.335938 C 83.207031 676.871094 79.121094 679.066406 76.316406 682.71875 L 69.554688 691.476562 L 74.457031 695.257812 L 76.964844 689.597656 C 67.878906 685.570312 58.34375 683.007812 48.71875 681.925781 L 48.019531 688.078125 L 54.164062 687.289062 L 52.746094 676.324219 C 52.453125 674.050781 51.699219 671.90625 50.601562 670.027344 C 49.503906 668.148438 48.058594 666.515625 46.363281 665.207031 C 44.667969 663.898438 42.722656 662.914062 40.628906 662.328125 C 38.53125 661.742188 36.265625 661.554688 33.992188 661.847656 L 11.855469 664.695312 C 9.578125 664.988281 7.433594 665.742188 5.554688 666.839844 C 3.675781 667.9375 2.042969 669.382812 0.734375 671.078125 C -0.574219 672.773438 -1.558594 674.71875 -2.144531 676.816406 C -2.730469 678.910156 -2.914062 681.175781 -2.625 683.449219 L -1.210938 694.421875 L 4.925781 693.625 L 2.691406 687.851562 C -6.355469 691.34375 -14.921875 696.222656 -22.695312 702.421875 L -18.832031 707.261719 L -15.050781 702.363281 L -23.808594 695.601562 C -27.453125 692.789062 -31.945312 691.699219 -36.183594 692.242188 C -40.410156 692.777344 -44.496094 694.972656 -47.300781 698.625 L -60.9375 716.292969 C -63.753906 719.9375 -64.84375 724.425781 -64.296875 728.664062 C -63.761719 732.890625 -61.570312 736.976562 -57.917969 739.78125 L -49.15625 746.542969 L -45.375 741.644531 L -51.035156 739.136719 C -55.066406 748.222656 -57.625 757.757812 -58.707031 767.382812 L -52.554688 768.082031 L -53.335938 761.941406 L -64.308594 763.355469 C -66.582031 763.648438 -68.726562 764.402344 -70.605469 765.5 C -72.484375 766.597656 -74.117188 768.042969 -75.425781 769.738281 C -76.734375 771.433594 -77.71875 773.375 -78.308594 775.472656 C -78.894531 777.570312 -79.078125 779.835938 -78.785156 782.109375 L -75.9375 804.246094 C -75.644531 806.519531 -74.890625 808.664062 -73.792969 810.542969 C -72.695312 812.425781 -71.25 814.054688 -69.554688 815.363281 C -67.859375 816.671875 -65.914062 817.660156 -63.820312 818.246094 C -61.722656 818.832031 -59.457031 819.015625 -57.183594 818.722656 L -46.210938 817.3125 L -47.007812 811.175781 L -52.777344 813.398438 C -49.28125 822.445312 -44.402344 831.011719 -38.203125 838.785156 L -33.363281 834.921875 L -38.261719 831.140625 L -45.023438 839.902344 C -47.839844 843.546875 -48.929688 848.035156 -48.382812 852.273438 C -47.847656 856.5 -45.652344 860.585938 -42 863.390625 L -24.335938 877.03125 C -20.691406 879.84375 -16.199219 880.933594 -11.960938 880.386719 C -7.734375 879.851562 -3.648438 877.660156 -0.84375 874.007812 L 5.917969 865.246094 L 1.019531 861.464844 L -1.492188 867.128906 C 7.597656 871.15625 17.121094 873.707031 26.757812 874.796875 L 27.449219 868.652344 L 21.320312 869.441406 L 22.722656 880.410156 C 23.015625 882.683594 23.765625 884.828125 24.863281 886.707031 C 25.960938 888.585938 27.40625 890.21875 29.101562 891.527344 C 30.796875 892.835938 32.742188 893.820312 34.839844 894.40625 C 36.9375 894.992188 39.199219 895.179688 41.476562 894.886719 L 63.613281 892.039062 C 65.886719 891.746094 68.03125 890.992188 69.910156 889.894531 C 71.789062 888.796875 73.421875 887.351562 74.730469 885.65625 C 76.039062 883.960938 77.023438 882.015625 77.609375 879.917969 C 78.199219 877.824219 78.382812 875.558594 78.089844 873.285156 L 76.679688 862.308594 L 70.542969 863.109375 L 72.777344 868.882812 C 81.820312 865.390625 90.390625 860.511719 98.160156 854.3125 L 94.300781 849.46875 L 90.515625 854.371094 L 99.277344 861.132812 C 102.921875 863.945312 107.421875 865.042969 111.648438 864.492188 C 115.878906 863.957031 119.964844 861.761719 122.769531 858.109375 C 124.855469 855.40625 124.355469 851.515625 121.652344 849.429688 C 118.945312 847.339844 115.058594 847.839844 112.96875 850.546875 C 112.222656 851.515625 111.195312 852.054688 110.070312 852.214844 C 108.941406 852.359375 107.8125 852.082031 106.832031 851.34375 L 94.234375 841.617188 L 90.441406 844.644531 C 83.652344 850.054688 76.175781 854.308594 68.308594 857.351562 L 63.785156 859.097656 L 65.816406 874.878906 C 65.886719 875.496094 65.84375 876.058594 65.703125 876.605469 C 65.550781 877.148438 65.292969 877.664062 64.953125 878.105469 C 64.613281 878.546875 64.175781 878.929688 63.691406 879.214844 C 63.207031 879.496094 62.667969 879.6875 62.050781 879.761719 L 39.914062 882.609375 C 39.296875 882.695312 38.734375 882.636719 38.1875 882.496094 C 37.648438 882.34375 37.128906 882.085938 36.6875 881.742188 C 36.234375 881.394531 35.863281 880.96875 35.582031 880.484375 C 35.296875 880 35.105469 879.457031 35.023438 878.832031 L 32.992188 863.050781 L 28.175781 862.507812 C 19.785156 861.566406 11.484375 859.332031 3.550781 855.816406 L -0.886719 853.847656 L -10.613281 866.449219 C -11.363281 867.417969 -12.390625 867.957031 -13.515625 868.117188 C -14.644531 868.265625 -15.773438 867.984375 -16.75 867.246094 L -34.417969 853.609375 C -35.386719 852.859375 -35.925781 851.835938 -36.082031 850.699219 C -36.226562 849.570312 -35.953125 848.449219 -35.207031 847.460938 L -25.480469 834.863281 L -28.511719 831.070312 C -33.921875 824.28125 -38.171875 816.808594 -41.214844 808.9375 L -42.960938 804.414062 L -58.746094 806.445312 C -59.371094 806.527344 -59.925781 806.472656 -60.472656 806.332031 C -61.011719 806.183594 -61.53125 805.921875 -61.972656 805.582031 C -62.421875 805.234375 -62.796875 804.804688 -63.078125 804.320312 C -63.359375 803.835938 -63.554688 803.296875 -63.632812 802.671875 L -66.484375 780.535156 C -66.554688 779.917969 -66.511719 779.355469 -66.371094 778.808594 C -66.21875 778.269531 -65.960938 777.75 -65.617188 777.308594 C -65.277344 776.867188 -64.84375 776.484375 -64.359375 776.203125 C -63.875 775.917969 -63.332031 775.726562 -62.714844 775.65625 L -46.933594 773.625 L -46.390625 768.804688 C -45.449219 760.417969 -43.214844 752.117188 -39.699219 744.179688 L -37.738281 739.734375 L -50.359375 729.992188 C -51.328125 729.246094 -51.867188 728.21875 -52.023438 727.082031 C -52.167969 725.957031 -51.898438 724.835938 -51.152344 723.847656 L -37.511719 706.179688 C -36.765625 705.210938 -35.738281 704.671875 -34.601562 704.519531 C -33.472656 704.375 -32.355469 704.644531 -31.375 705.398438 L -18.773438 715.128906 L -14.96875 712.105469 C -8.183594 706.695312 -0.707031 702.441406 7.160156 699.398438 L 11.683594 697.652344 L 9.652344 681.871094 C 9.582031 681.253906 9.625 680.691406 9.773438 680.132812 C 9.925781 679.59375 10.175781 679.085938 10.523438 678.636719 C 10.871094 678.183594 11.300781 677.8125 11.785156 677.527344 C 12.269531 677.246094 12.808594 677.050781 13.425781 676.980469 L 35.5625 674.132812 C 36.179688 674.0625 36.742188 674.105469 37.289062 674.246094 C 37.832031 674.398438 38.347656 674.65625 38.789062 674.996094 C 39.242188 675.34375 39.613281 675.773438 39.894531 676.257812 C 40.179688 676.742188 40.371094 677.28125 40.453125 677.90625 L 42.484375 693.691406 L 47.300781 694.234375 C 55.683594 695.1875 63.992188 697.410156 71.925781 700.921875 L 76.363281 702.894531 L 86.089844 690.292969 C 86.839844 689.324219 87.867188 688.785156 89 688.628906 C 90.128906 688.484375 91.25 688.757812 92.230469 689.511719 L 109.894531 703.148438 C 110.867188 703.898438 111.40625 704.925781 111.566406 706.050781 C 111.710938 707.179688 111.433594 708.308594 110.683594 709.277344 L 100.957031 721.878906 L 103.988281 725.671875 C 109.398438 732.460938 113.648438 739.933594 116.691406 747.804688 C 117.921875 750.988281 121.507812 752.585938 124.695312 751.355469 C 127.886719 750.097656 129.480469 746.511719 128.25 743.324219 " fill-opacity="1" fill-rule="nonzero"/></g></g></g><g clip-path="url(#cdfadee103)"><g clip-path="url(#64d9cb8f69)"><g clip-path="url(#cb7a072ca2)"><path fill="#ffffff" d="M 200.394531 774.246094 C 200.394531 774.246094 200.382812 774.238281 200.382812 774.238281 C 192.042969 767.800781 181.816406 765.332031 172.136719 766.585938 C 162.457031 767.824219 153.1875 772.804688 146.75 781.140625 C 140.3125 789.480469 137.84375 799.707031 139.097656 809.386719 C 140.335938 819.066406 145.304688 828.328125 153.644531 834.765625 C 153.644531 834.765625 153.644531 834.765625 153.652344 834.773438 C 161.992188 841.210938 172.21875 843.679688 181.898438 842.425781 C 191.578125 841.1875 200.847656 836.210938 207.285156 827.871094 L 197.488281 820.308594 C 193.113281 825.972656 186.898438 829.304688 180.316406 830.152344 C 173.726562 830.988281 166.878906 829.347656 161.214844 824.976562 C 155.554688 820.601562 152.21875 814.386719 151.375 807.804688 C 150.535156 801.214844 152.175781 794.367188 156.550781 788.707031 C 160.921875 783.042969 167.136719 779.710938 173.71875 778.863281 C 180.308594 778.023438 187.15625 779.664062 192.820312 784.039062 C 198.484375 788.410156 201.816406 794.625 202.660156 801.207031 C 203.5 807.796875 201.847656 814.636719 197.488281 820.308594 L 207.285156 827.871094 C 213.722656 819.535156 216.191406 809.304688 214.9375 799.625 C 213.699219 789.945312 208.730469 780.683594 200.394531 774.246094 " fill-opacity="1" fill-rule="nonzero"/></g></g></g><g clip-path="url(#07709016a5)"><g clip-path="url(#2d6e3b8713)"><g clip-path="url(#57c5c8947c)"><path fill="#ffffff" d="M 178.964844 744.601562 L 183.78125 745.144531 C 189.691406 745.8125 195.550781 747.382812 201.15625 749.863281 L 205.59375 751.832031 L 213.472656 741.625 C 213.730469 741.289062 214.054688 741.117188 214.453125 741.066406 C 214.84375 741.023438 215.207031 741.101562 215.539062 741.359375 L 228.355469 751.25 C 228.699219 751.515625 228.855469 751.839844 228.914062 752.230469 C 228.957031 752.621094 228.878906 752.984375 228.621094 753.316406 L 220.746094 763.519531 L 223.777344 767.3125 C 227.597656 772.105469 230.597656 777.375 232.742188 782.925781 L 234.488281 787.449219 L 247.265625 785.804688 C 247.484375 785.785156 247.664062 785.796875 247.84375 785.84375 C 248.027344 785.890625 248.199219 785.976562 248.355469 786.097656 C 248.5 786.210938 248.636719 786.359375 248.726562 786.523438 C 248.820312 786.6875 248.875 786.859375 248.914062 787.074219 L 250.980469 803.132812 C 251 803.351562 250.984375 803.53125 250.9375 803.714844 C 250.890625 803.894531 250.808594 804.066406 250.6875 804.222656 C 250.566406 804.378906 250.421875 804.503906 250.257812 804.59375 C 250.09375 804.6875 249.925781 804.742188 249.707031 804.78125 L 236.929688 806.425781 L 236.386719 811.242188 C 235.714844 817.152344 234.148438 823.011719 231.667969 828.617188 L 229.695312 833.054688 L 239.894531 840.929688 C 240.230469 841.183594 240.394531 841.515625 240.453125 841.90625 C 240.496094 842.296875 240.417969 842.660156 240.160156 842.992188 L 230.269531 855.808594 C 230.003906 856.152344 229.679688 856.308594 229.289062 856.367188 C 228.898438 856.410156 228.535156 856.332031 228.203125 856.074219 L 218.003906 848.203125 L 214.207031 851.230469 C 209.414062 855.050781 204.144531 858.050781 198.59375 860.195312 L 194.070312 861.941406 L 195.714844 874.71875 C 195.734375 874.9375 195.722656 875.117188 195.675781 875.300781 C 195.628906 875.480469 195.542969 875.652344 195.425781 875.808594 C 195.304688 875.964844 195.160156 876.089844 194.996094 876.179688 C 194.832031 876.273438 194.660156 876.328125 194.445312 876.367188 L 178.386719 878.433594 C 178.160156 878.460938 177.980469 878.449219 177.808594 878.394531 C 177.625 878.34375 177.453125 878.261719 177.296875 878.140625 C 177.140625 878.019531 177.015625 877.875 176.925781 877.710938 C 176.832031 877.546875 176.777344 877.378906 176.738281 877.164062 L 175.09375 864.382812 L 170.277344 863.839844 C 164.367188 863.167969 158.507812 861.601562 152.902344 859.121094 L 148.457031 857.160156 L 140.585938 867.359375 C 140.320312 867.703125 139.996094 867.859375 139.605469 867.917969 C 139.214844 867.960938 138.851562 867.882812 138.519531 867.625 L 125.703125 857.730469 C 125.367188 857.472656 125.195312 857.152344 125.144531 856.753906 C 125.101562 856.363281 125.179688 856 125.4375 855.664062 L 133.308594 845.464844 L 130.289062 841.664062 C 126.46875 836.867188 123.46875 831.597656 121.324219 826.046875 L 119.578125 821.527344 L 106.800781 823.171875 C 106.574219 823.199219 106.394531 823.1875 106.222656 823.128906 C 106.039062 823.082031 105.867188 823 105.710938 822.878906 C 105.554688 822.757812 105.429688 822.613281 105.339844 822.449219 C 105.246094 822.285156 105.191406 822.117188 105.152344 821.898438 L 103.085938 805.839844 C 103.058594 805.613281 103.070312 805.433594 103.128906 805.261719 C 103.175781 805.078125 103.257812 804.910156 103.378906 804.75 C 103.5 804.59375 103.644531 804.46875 103.808594 804.378906 C 103.972656 804.285156 104.140625 804.230469 104.359375 804.191406 L 117.136719 802.546875 L 117.679688 797.730469 C 118.351562 791.820312 119.917969 785.960938 122.398438 780.355469 L 124.359375 775.914062 L 114.160156 768.039062 C 113.828125 767.78125 113.660156 767.449219 113.601562 767.058594 C 113.558594 766.667969 113.636719 766.304688 113.894531 765.972656 L 123.789062 753.15625 C 124.054688 752.8125 124.367188 752.648438 124.765625 752.597656 C 125.160156 752.554688 125.519531 752.632812 125.855469 752.890625 L 136.054688 760.765625 L 139.855469 757.742188 C 144.652344 753.921875 149.921875 750.921875 155.472656 748.777344 L 159.992188 747.03125 L 158.351562 734.253906 C 158.320312 734.027344 158.332031 733.847656 158.390625 733.675781 C 158.4375 733.492188 158.519531 733.324219 158.640625 733.164062 C 158.761719 733.007812 158.90625 732.882812 159.070312 732.792969 C 159.234375 732.699219 159.40625 732.644531 159.621094 732.605469 L 175.679688 730.539062 C 175.898438 730.519531 176.078125 730.535156 176.257812 730.582031 C 176.441406 730.628906 176.613281 730.710938 176.769531 730.832031 C 176.925781 730.953125 177.050781 731.097656 177.140625 731.261719 C 177.234375 731.425781 177.289062 731.59375 177.328125 731.8125 L 178.964844 744.601562 M 235.941406 741.46875 C 235.941406 741.46875 235.929688 741.460938 235.929688 741.460938 L 223.113281 731.566406 C 223.113281 731.566406 223.105469 731.558594 223.105469 731.558594 C 220.097656 729.238281 216.378906 728.339844 212.882812 728.796875 C 209.382812 729.238281 206.007812 731.058594 203.6875 734.066406 L 201.636719 736.722656 C 197.839844 735.339844 193.953125 734.296875 190.03125 733.566406 L 189.605469 730.25 C 189.363281 728.375 188.746094 726.601562 187.839844 725.039062 C 186.933594 723.480469 185.734375 722.132812 184.335938 721.050781 C 182.933594 719.96875 181.328125 719.152344 179.589844 718.671875 C 177.851562 718.1875 175.984375 718.03125 174.101562 718.28125 L 158.042969 720.347656 C 156.167969 720.589844 154.394531 721.207031 152.835938 722.113281 C 151.273438 723.019531 149.929688 724.21875 148.847656 725.617188 C 147.765625 727.019531 146.949219 728.625 146.464844 730.363281 C 145.984375 732.101562 145.835938 733.976562 146.078125 735.851562 L 146.503906 739.167969 C 142.890625 740.847656 139.398438 742.859375 136.074219 745.160156 L 133.429688 743.117188 C 133.429688 743.117188 133.421875 743.109375 133.421875 743.109375 C 131.519531 741.640625 129.320312 740.742188 127.089844 740.394531 C 127.503906 741.371094 127.90625 742.355469 128.289062 743.335938 C 129.519531 746.523438 127.933594 750.117188 124.738281 751.339844 C 122.644531 752.148438 120.375 751.742188 118.71875 750.464844 C 117.859375 749.796875 117.148438 748.890625 116.734375 747.789062 C 116.269531 746.585938 115.773438 745.390625 115.25 744.203125 C 114.804688 744.640625 114.386719 745.117188 114.003906 745.617188 L 104.109375 758.433594 C 101.785156 761.441406 100.878906 765.167969 101.339844 768.664062 C 101.78125 772.164062 103.589844 775.53125 106.609375 777.859375 C 106.609375 777.859375 106.609375 777.859375 106.617188 777.867188 L 109.261719 779.910156 C 107.882812 783.707031 106.835938 787.59375 106.105469 791.515625 L 102.789062 791.941406 C 100.914062 792.183594 99.140625 792.800781 97.582031 793.707031 C 96.019531 794.613281 94.675781 795.8125 93.59375 797.210938 C 92.511719 798.613281 91.695312 800.21875 91.210938 801.957031 C 90.730469 803.695312 90.582031 805.570312 90.824219 807.445312 L 92.890625 823.503906 C 93.132812 825.378906 93.75 827.152344 94.65625 828.714844 C 95.5625 830.273438 96.757812 831.621094 98.160156 832.699219 C 99.5625 833.78125 101.167969 834.597656 102.90625 835.082031 C 104.644531 835.5625 106.515625 835.710938 108.390625 835.46875 L 111.707031 835.042969 C 113.390625 838.65625 115.390625 842.140625 117.699219 845.472656 L 115.65625 848.117188 C 115.5 848.324219 115.355469 848.527344 115.214844 848.730469 C 117.261719 847.742188 119.78125 847.921875 121.699219 849.402344 C 124.40625 851.492188 124.90625 855.378906 122.816406 858.085938 C 120.699219 860.828125 117.867188 862.753906 114.785156 863.769531 C 115.648438 865.183594 116.777344 866.476562 118.15625 867.546875 C 118.15625 867.546875 118.15625 867.546875 118.167969 867.550781 L 130.984375 877.445312 C 130.984375 877.445312 130.992188 877.453125 130.992188 877.453125 C 134 879.777344 137.71875 880.675781 141.214844 880.214844 C 144.714844 879.773438 148.089844 877.953125 150.410156 874.945312 L 152.453125 872.300781 C 156.25 873.683594 160.144531 874.734375 164.058594 875.457031 L 164.484375 878.773438 C 164.726562 880.648438 165.34375 882.421875 166.25 883.984375 C 167.15625 885.542969 168.355469 886.890625 169.753906 887.972656 C 171.15625 889.054688 172.761719 889.871094 174.5 890.351562 C 176.238281 890.835938 178.113281 890.980469 179.988281 890.742188 L 196.046875 888.675781 C 197.921875 888.433594 199.695312 887.816406 201.257812 886.910156 C 202.816406 886.003906 204.164062 884.804688 205.242188 883.40625 C 206.324219 882.003906 207.144531 880.398438 207.625 878.660156 C 208.105469 876.921875 208.265625 875.054688 208.011719 873.171875 L 207.585938 869.855469 C 211.199219 868.175781 214.683594 866.171875 218.015625 863.863281 L 220.667969 865.914062 C 223.675781 868.238281 227.402344 869.140625 230.902344 868.683594 C 234.402344 868.242188 237.777344 866.421875 240.097656 863.414062 L 249.992188 850.597656 C 252.3125 847.589844 253.21875 843.863281 252.761719 840.367188 C 252.3125 836.875 250.507812 833.5 247.5 831.175781 C 247.5 831.175781 247.492188 831.167969 247.492188 831.167969 L 244.835938 829.121094 C 246.21875 825.324219 247.269531 821.429688 247.992188 817.515625 L 251.308594 817.089844 C 253.183594 816.847656 254.957031 816.230469 256.519531 815.324219 C 258.078125 814.417969 259.425781 813.21875 260.507812 811.820312 C 261.589844 810.417969 262.40625 808.8125 262.886719 807.074219 C 263.371094 805.335938 263.515625 803.460938 263.277344 801.585938 L 261.210938 785.527344 C 260.96875 783.652344 260.351562 781.878906 259.445312 780.316406 C 258.539062 778.757812 257.339844 777.410156 255.941406 776.332031 C 254.539062 775.25 252.933594 774.429688 251.195312 773.949219 C 249.457031 773.46875 247.589844 773.308594 245.707031 773.5625 L 242.390625 773.988281 C 240.710938 770.375 238.699219 766.882812 236.398438 763.558594 L 238.441406 760.914062 C 240.765625 757.90625 241.671875 754.179688 241.210938 750.683594 C 240.75 747.167969 238.949219 743.789062 235.941406 741.46875 " fill-opacity="1" fill-rule="nonzero"/></g></g></g><g clip-path="url(#995818646c)"><g clip-path="url(#78c14aafec)"><g clip-path="url(#8889bbb015)"><path fill="#ffffff" d="M 121.648438 849.410156 C 119.726562 847.929688 117.207031 847.75 115.164062 848.734375 C 113.164062 851.632812 112.410156 855.101562 112.835938 858.355469 C 113.070312 860.238281 113.714844 862.097656 114.722656 863.769531 C 117.804688 862.753906 120.648438 860.835938 122.757812 858.085938 C 124.851562 855.386719 124.351562 851.5 121.648438 849.410156 M 127.050781 740.382812 C 125.753906 740.175781 124.445312 740.167969 123.160156 740.335938 C 120.253906 740.699219 117.414062 742.027344 115.222656 744.199219 C 115.746094 745.382812 116.242188 746.582031 116.707031 747.785156 C 117.128906 748.875 117.820312 749.785156 118.691406 750.457031 C 120.347656 751.738281 122.617188 752.140625 124.710938 751.335938 C 127.894531 750.101562 129.492188 746.519531 128.261719 743.332031 C 127.867188 742.339844 127.46875 741.359375 127.050781 740.382812 " fill-opacity="1" fill-rule="nonzero"/></g></g></g><g clip-path="url(#3c5b54a9f6)"><g clip-path="url(#499f6e4740)"><g clip-path="url(#380d151dfb)"><path fill="#7662ee" d="M 1422.054688 87.179688 C 1422.066406 87.179688 1422.066406 87.179688 1422.054688 87.179688 C 1435.710938 89.691406 1449.152344 86.425781 1459.746094 79.121094 C 1470.335938 71.832031 1478.183594 60.425781 1480.683594 46.777344 C 1483.195312 33.117188 1479.929688 19.679688 1472.625 9.097656 C 1465.335938 -1.492188 1453.9375 -9.328125 1440.289062 -11.839844 C 1440.289062 -11.839844 1440.277344 -11.839844 1440.277344 -11.839844 C 1426.621094 -14.355469 1413.179688 -11.085938 1402.597656 -3.78125 C 1392.007812 3.507812 1384.160156 14.914062 1381.660156 28.5625 L 1387.746094 29.683594 L 1393.835938 30.800781 C 1395.734375 20.464844 1401.621094 11.945312 1409.625 6.40625 C 1417.648438 0.886719 1427.703125 -1.570312 1438.039062 0.332031 C 1448.375 2.234375 1456.894531 8.117188 1462.433594 16.121094 C 1467.957031 24.148438 1470.410156 34.214844 1468.507812 44.539062 C 1466.609375 54.875 1460.722656 63.394531 1452.71875 68.933594 C 1444.695312 74.453125 1434.628906 76.90625 1424.304688 75.007812 C 1413.96875 73.105469 1405.445312 67.234375 1399.910156 59.21875 C 1394.386719 51.191406 1391.933594 41.136719 1393.835938 30.800781 L 1387.746094 29.683594 L 1381.660156 28.5625 C 1379.148438 42.222656 1382.414062 55.660156 1389.71875 66.242188 C 1397.007812 76.832031 1408.40625 84.667969 1422.054688 87.179688 " fill-opacity="1" fill-rule="nonzero"/></g></g></g><g clip-path="url(#7f713ca0a4)"><g clip-path="url(#e9e7b228d3)"><g clip-path="url(#18600a9c7a)"><path fill="#7662ee" d="M 1366.738281 110.242188 C 1373.984375 116.6875 1382.246094 122.070312 1391.3125 126.140625 L 1393.851562 120.492188 L 1387.761719 119.371094 L 1385.761719 130.253906 C 1384.929688 134.785156 1386.015625 139.277344 1388.4375 142.792969 C 1390.851562 146.308594 1394.671875 148.9375 1399.203125 149.757812 L 1421.152344 153.792969 C 1425.679688 154.628906 1430.171875 153.539062 1433.691406 151.117188 C 1437.203125 148.703125 1439.832031 144.882812 1440.652344 140.351562 L 1442.65625 129.46875 L 1436.570312 128.347656 L 1436.929688 134.53125 C 1446.851562 133.953125 1456.5 131.863281 1465.554688 128.417969 L 1463.359375 122.628906 L 1458.257812 126.144531 L 1464.539062 135.242188 C 1465.839844 137.132812 1467.488281 138.695312 1469.328125 139.863281 C 1471.164062 141.03125 1473.195312 141.820312 1475.300781 142.207031 C 1477.40625 142.59375 1479.585938 142.578125 1481.71875 142.140625 C 1483.851562 141.703125 1485.949219 140.832031 1487.839844 139.527344 L 1506.214844 126.863281 C 1508.101562 125.5625 1509.664062 123.910156 1510.835938 122.074219 C 1512.003906 120.238281 1512.792969 118.203125 1513.179688 116.097656 C 1513.566406 113.992188 1513.550781 111.8125 1513.113281 109.679688 C 1512.675781 107.546875 1511.800781 105.449219 1510.5 103.5625 L 1504.222656 94.453125 L 1499.132812 97.972656 L 1503.761719 102.082031 C 1510.207031 94.835938 1515.589844 86.574219 1519.660156 77.507812 L 1514.011719 74.96875 L 1512.890625 81.054688 L 1523.773438 83.058594 C 1528.304688 83.890625 1532.792969 82.804688 1536.3125 80.378906 C 1539.828125 77.96875 1542.453125 74.148438 1543.277344 69.617188 L 1547.3125 47.667969 C 1548.144531 43.136719 1547.058594 38.648438 1544.636719 35.128906 C 1542.222656 31.613281 1538.402344 28.988281 1533.871094 28.164062 L 1522.988281 26.164062 L 1521.867188 32.25 L 1528.050781 31.890625 C 1527.472656 21.96875 1525.382812 12.320312 1521.9375 3.265625 L 1516.148438 5.460938 L 1519.652344 10.5625 L 1528.761719 4.28125 C 1530.648438 2.980469 1532.210938 1.328125 1533.378906 -0.507812 C 1534.550781 -2.34375 1535.339844 -4.375 1535.726562 -6.480469 C 1536.113281 -8.585938 1536.097656 -10.769531 1535.660156 -12.898438 C 1535.222656 -15.03125 1534.347656 -17.128906 1533.046875 -19.019531 L 1520.378906 -37.394531 C 1519.078125 -39.285156 1517.429688 -40.847656 1515.59375 -42.015625 C 1513.753906 -43.183594 1511.722656 -43.972656 1509.617188 -44.359375 C 1507.511719 -44.746094 1505.332031 -44.734375 1503.199219 -44.292969 C 1501.066406 -43.855469 1498.96875 -42.984375 1497.078125 -41.679688 L 1487.96875 -35.402344 L 1491.488281 -30.3125 L 1495.597656 -34.929688 C 1488.351562 -41.375 1480.089844 -46.757812 1471.023438 -50.828125 L 1468.484375 -45.179688 L 1474.574219 -44.058594 L 1476.574219 -54.941406 C 1477.40625 -59.472656 1476.320312 -63.964844 1473.898438 -67.480469 C 1471.484375 -70.996094 1467.664062 -73.621094 1463.132812 -74.445312 L 1441.183594 -78.480469 C 1436.65625 -79.3125 1432.164062 -78.226562 1428.644531 -75.804688 C 1425.132812 -73.390625 1422.503906 -69.570312 1421.683594 -65.039062 L 1419.679688 -54.15625 L 1425.765625 -53.035156 L 1425.40625 -59.21875 C 1415.484375 -58.640625 1405.847656 -56.550781 1396.78125 -53.105469 L 1398.980469 -47.328125 L 1404.066406 -50.835938 L 1397.800781 -59.941406 C 1396.5 -61.832031 1394.847656 -63.390625 1393.011719 -64.5625 C 1391.175781 -65.730469 1389.144531 -66.519531 1387.035156 -66.90625 C 1384.929688 -67.292969 1382.75 -67.277344 1380.617188 -66.839844 C 1378.488281 -66.402344 1376.386719 -65.53125 1374.5 -64.226562 L 1356.121094 -51.5625 C 1354.234375 -50.257812 1352.671875 -48.609375 1351.503906 -46.773438 C 1350.335938 -44.9375 1349.546875 -42.902344 1349.160156 -40.796875 C 1348.773438 -38.691406 1348.785156 -36.511719 1349.226562 -34.378906 C 1349.664062 -32.246094 1350.535156 -30.148438 1351.835938 -28.261719 L 1358.117188 -19.152344 L 1363.207031 -22.671875 L 1358.574219 -26.78125 C 1352.132812 -19.535156 1346.75 -11.273438 1342.675781 -2.207031 L 1348.328125 0.332031 L 1349.449219 -5.753906 L 1338.5625 -7.757812 C 1334.035156 -8.589844 1329.53125 -7.507812 1326.027344 -5.078125 C 1322.511719 -2.667969 1319.882812 1.152344 1319.0625 5.683594 C 1318.445312 9.042969 1320.671875 12.273438 1324.03125 12.890625 C 1327.390625 13.507812 1330.617188 11.285156 1331.238281 7.921875 C 1331.457031 6.71875 1332.125 5.769531 1333.050781 5.109375 C 1333.988281 4.464844 1335.121094 4.195312 1336.328125 4.402344 L 1351.984375 7.285156 L 1353.96875 2.855469 C 1357.527344 -5.0625 1362.222656 -12.265625 1367.828125 -18.574219 L 1371.046875 -22.195312 L 1362.015625 -35.296875 C 1361.671875 -35.816406 1361.453125 -36.332031 1361.328125 -36.886719 C 1361.214844 -37.433594 1361.207031 -38.015625 1361.308594 -38.5625 C 1361.410156 -39.109375 1361.621094 -39.648438 1361.921875 -40.125 C 1362.222656 -40.597656 1362.617188 -41.015625 1363.132812 -41.359375 L 1381.507812 -54.027344 C 1382.015625 -54.386719 1382.542969 -54.59375 1383.097656 -54.71875 C 1383.644531 -54.832031 1384.226562 -54.835938 1384.773438 -54.738281 C 1385.332031 -54.632812 1385.859375 -54.421875 1386.335938 -54.121094 C 1386.808594 -53.820312 1387.226562 -53.429688 1387.585938 -52.910156 L 1396.613281 -39.808594 L 1401.148438 -41.53125 C 1409.039062 -44.535156 1417.4375 -46.347656 1426.105469 -46.859375 L 1430.949219 -47.136719 L 1433.828125 -62.792969 C 1434.050781 -63.996094 1434.714844 -64.945312 1435.644531 -65.605469 C 1436.582031 -66.25 1437.710938 -66.519531 1438.917969 -66.3125 L 1460.871094 -62.273438 C 1462.074219 -62.050781 1463.023438 -61.386719 1463.679688 -60.449219 C 1464.324219 -59.511719 1464.597656 -58.390625 1464.386719 -57.171875 L 1461.507812 -41.515625 L 1465.9375 -39.53125 C 1473.851562 -35.972656 1481.058594 -31.273438 1487.363281 -25.671875 L 1490.988281 -22.449219 L 1504.089844 -31.480469 C 1504.609375 -31.839844 1505.125 -32.046875 1505.675781 -32.171875 C 1506.226562 -32.285156 1506.804688 -32.289062 1507.351562 -32.191406 C 1507.914062 -32.085938 1508.441406 -31.875 1508.914062 -31.574219 C 1509.386719 -31.273438 1509.804688 -30.882812 1510.164062 -30.363281 L 1522.832031 -11.988281 C 1523.175781 -11.46875 1523.394531 -10.953125 1523.519531 -10.398438 C 1523.632812 -9.851562 1523.640625 -9.269531 1523.539062 -8.722656 C 1523.4375 -8.175781 1523.226562 -7.636719 1522.925781 -7.160156 C 1522.625 -6.6875 1522.230469 -6.269531 1521.714844 -5.925781 L 1508.613281 3.105469 L 1510.335938 7.640625 C 1513.339844 15.527344 1515.15625 23.929688 1515.664062 32.59375 L 1515.953125 37.445312 L 1531.632812 40.328125 C 1532.839844 40.550781 1533.785156 41.214844 1534.445312 42.152344 C 1535.089844 43.089844 1535.363281 44.210938 1535.152344 45.429688 L 1531.113281 67.378906 C 1530.890625 68.585938 1530.226562 69.53125 1529.289062 70.191406 C 1528.351562 70.835938 1527.230469 71.109375 1526.011719 70.882812 L 1510.359375 68.003906 L 1508.359375 72.433594 C 1504.800781 80.347656 1500.105469 87.550781 1494.5 93.859375 L 1491.28125 97.484375 L 1500.3125 110.585938 C 1500.65625 111.101562 1500.875 111.621094 1501 112.183594 C 1501.113281 112.734375 1501.121094 113.300781 1501.015625 113.859375 C 1500.914062 114.421875 1500.703125 114.949219 1500.402344 115.421875 C 1500.101562 115.894531 1499.710938 116.3125 1499.195312 116.660156 L 1480.816406 129.328125 C 1480.300781 129.671875 1479.78125 129.890625 1479.230469 130.015625 C 1478.679688 130.128906 1478.101562 130.136719 1477.550781 130.035156 C 1476.992188 129.933594 1476.464844 129.722656 1475.992188 129.421875 C 1475.519531 129.121094 1475.097656 128.726562 1474.742188 128.210938 L 1465.710938 115.109375 L 1461.179688 116.828125 C 1453.289062 119.820312 1444.886719 121.648438 1436.222656 122.15625 L 1431.375 122.433594 L 1428.496094 138.089844 C 1428.273438 139.296875 1427.609375 140.242188 1426.671875 140.902344 C 1425.734375 141.546875 1424.613281 141.820312 1423.394531 141.597656 L 1401.445312 137.558594 C 1400.242188 137.335938 1399.292969 136.671875 1398.632812 135.746094 C 1397.988281 134.808594 1397.71875 133.675781 1397.941406 132.46875 L 1400.820312 116.816406 L 1396.390625 114.828125 C 1388.472656 111.273438 1381.269531 106.574219 1374.960938 100.972656 C 1372.410156 98.703125 1368.492188 98.925781 1366.222656 101.476562 C 1363.960938 104.058594 1364.183594 107.976562 1366.738281 110.242188 " fill-opacity="1" fill-rule="nonzero"/></g></g></g><g clip-path="url(#5a06ac6a1b)"><g clip-path="url(#62b1d964a7)"><g clip-path="url(#b3c3c39d45)"><path fill="#ffffff" d="M 1288.441406 115.777344 C 1288.441406 115.777344 1288.453125 115.78125 1288.453125 115.78125 C 1298.8125 117.6875 1309.039062 115.199219 1317.070312 109.652344 C 1325.109375 104.121094 1331.070312 95.453125 1332.976562 85.09375 C 1334.882812 74.734375 1332.394531 64.507812 1326.847656 56.476562 C 1321.316406 48.4375 1312.660156 42.476562 1302.300781 40.574219 C 1302.300781 40.574219 1302.300781 40.574219 1302.289062 40.570312 C 1291.929688 38.664062 1281.703125 41.152344 1273.671875 46.699219 C 1265.632812 52.230469 1259.671875 60.898438 1257.765625 71.257812 L 1263.851562 72.378906 L 1269.941406 73.496094 C 1271.234375 66.460938 1275.234375 60.652344 1280.699219 56.886719 C 1286.171875 53.125 1293.011719 51.449219 1300.046875 52.746094 C 1307.085938 54.039062 1312.894531 58.039062 1316.660156 63.503906 C 1320.421875 68.976562 1322.097656 75.816406 1320.800781 82.851562 C 1319.507812 89.890625 1315.507812 95.699219 1310.042969 99.464844 C 1304.570312 103.226562 1297.730469 104.902344 1290.691406 103.605469 C 1283.65625 102.3125 1277.847656 98.3125 1274.082031 92.847656 C 1270.320312 87.375 1268.65625 80.535156 1269.941406 73.496094 L 1263.851562 72.378906 L 1257.765625 71.257812 C 1255.859375 81.617188 1258.347656 91.84375 1263.894531 99.875 C 1269.425781 107.914062 1278.082031 113.875 1288.441406 115.777344 " fill-opacity="1" fill-rule="nonzero"/></g></g></g><g clip-path="url(#35d1036ffa)"><g clip-path="url(#02e1a58cd5)"><g clip-path="url(#1e94020968)"><path fill="#ffffff" d="M 1321.066406 132.328125 L 1316.535156 134.046875 C 1310.972656 136.160156 1305.046875 137.449219 1298.925781 137.808594 L 1294.082031 138.085938 L 1291.746094 150.769531 C 1291.671875 151.183594 1291.464844 151.488281 1291.132812 151.714844 C 1290.804688 151.933594 1290.445312 152.03125 1290.03125 151.953125 L 1274.109375 149.023438 C 1273.683594 148.945312 1273.394531 148.730469 1273.164062 148.410156 C 1272.949219 148.082031 1272.851562 147.722656 1272.925781 147.308594 L 1275.257812 134.636719 L 1270.828125 132.652344 C 1265.234375 130.136719 1260.15625 126.824219 1255.710938 122.871094 L 1252.085938 119.652344 L 1241.476562 126.964844 C 1241.292969 127.082031 1241.128906 127.152344 1240.945312 127.191406 C 1240.761719 127.234375 1240.570312 127.238281 1240.378906 127.203125 C 1240.195312 127.167969 1240.007812 127.09375 1239.851562 126.992188 C 1239.691406 126.886719 1239.566406 126.761719 1239.433594 126.585938 L 1230.242188 113.253906 C 1230.125 113.070312 1230.054688 112.90625 1230.015625 112.722656 C 1229.972656 112.539062 1229.96875 112.347656 1230.003906 112.152344 C 1230.042969 111.960938 1230.113281 111.785156 1230.214844 111.625 C 1230.320312 111.46875 1230.445312 111.339844 1230.621094 111.210938 L 1241.226562 103.898438 L 1239.507812 99.363281 C 1237.394531 93.804688 1236.105469 87.878906 1235.746094 81.757812 L 1235.46875 76.910156 L 1222.796875 74.582031 C 1222.382812 74.503906 1222.082031 74.285156 1221.851562 73.964844 C 1221.632812 73.636719 1221.535156 73.28125 1221.613281 72.867188 L 1224.542969 56.941406 C 1224.621094 56.515625 1224.835938 56.226562 1225.15625 55.996094 C 1225.484375 55.78125 1225.84375 55.683594 1226.257812 55.757812 L 1238.929688 58.089844 L 1240.914062 53.660156 C 1243.429688 48.070312 1246.742188 42.988281 1250.695312 38.542969 L 1253.914062 34.921875 L 1246.601562 24.3125 C 1246.484375 24.125 1246.414062 23.960938 1246.375 23.777344 C 1246.332031 23.59375 1246.328125 23.40625 1246.363281 23.210938 C 1246.402344 23.015625 1246.472656 22.839844 1246.574219 22.683594 C 1246.679688 22.527344 1246.804688 22.398438 1246.980469 22.265625 L 1260.3125 13.078125 C 1260.5 12.949219 1260.664062 12.878906 1260.84375 12.847656 C 1261.027344 12.804688 1261.21875 12.804688 1261.414062 12.839844 C 1261.605469 12.875 1261.78125 12.945312 1261.941406 13.050781 C 1262.097656 13.152344 1262.226562 13.277344 1262.355469 13.453125 L 1269.667969 24.0625 L 1274.203125 22.339844 C 1279.761719 20.230469 1285.6875 18.941406 1291.808594 18.582031 L 1296.65625 18.289062 L 1298.988281 5.617188 C 1299.066406 5.191406 1299.28125 4.902344 1299.601562 4.671875 C 1299.933594 4.457031 1300.289062 4.359375 1300.703125 4.433594 L 1316.625 7.363281 C 1317.039062 7.4375 1317.34375 7.644531 1317.570312 7.976562 C 1317.789062 8.308594 1317.886719 8.664062 1317.808594 9.078125 L 1315.476562 21.75 L 1319.90625 23.75 C 1325.496094 26.261719 1330.578125 29.574219 1335.023438 33.527344 L 1338.648438 36.75 L 1349.253906 29.4375 C 1349.441406 29.308594 1349.605469 29.238281 1349.789062 29.207031 C 1349.972656 29.164062 1350.160156 29.164062 1350.355469 29.199219 C 1350.550781 29.234375 1350.726562 29.304688 1350.882812 29.410156 C 1351.039062 29.511719 1351.167969 29.636719 1351.300781 29.8125 L 1360.488281 43.144531 C 1360.617188 43.332031 1360.6875 43.496094 1360.71875 43.679688 C 1360.761719 43.863281 1360.761719 44.050781 1360.726562 44.246094 C 1360.691406 44.441406 1360.621094 44.617188 1360.515625 44.773438 C 1360.414062 44.929688 1360.289062 45.058594 1360.113281 45.191406 L 1349.503906 52.503906 L 1351.226562 57.035156 C 1353.335938 62.597656 1354.625 68.523438 1354.984375 74.640625 L 1355.277344 79.492188 L 1367.949219 81.820312 C 1368.363281 81.898438 1368.664062 82.117188 1368.894531 82.4375 C 1369.109375 82.765625 1369.207031 83.121094 1369.132812 83.535156 L 1366.203125 99.460938 C 1366.125 99.886719 1365.921875 100.175781 1365.589844 100.40625 C 1365.261719 100.621094 1364.902344 100.71875 1364.488281 100.644531 L 1351.816406 98.3125 L 1349.816406 102.738281 C 1347.304688 108.332031 1343.992188 113.410156 1340.039062 117.855469 L 1336.816406 121.480469 L 1344.128906 132.089844 C 1344.257812 132.277344 1344.328125 132.441406 1344.359375 132.621094 C 1344.402344 132.804688 1344.402344 132.996094 1344.367188 133.1875 C 1344.332031 133.382812 1344.261719 133.558594 1344.15625 133.71875 C 1344.054688 133.875 1343.929688 134.003906 1343.753906 134.132812 L 1330.421875 143.324219 C 1330.238281 143.441406 1330.074219 143.511719 1329.886719 143.550781 C 1329.703125 143.59375 1329.515625 143.597656 1329.320312 143.5625 C 1329.125 143.523438 1328.949219 143.457031 1328.792969 143.351562 C 1328.636719 143.246094 1328.507812 143.121094 1328.375 142.945312 L 1321.066406 132.328125 M 1271.84375 161.195312 C 1271.84375 161.195312 1271.855469 161.195312 1271.855469 161.195312 L 1287.78125 164.125 C 1287.78125 164.125 1287.792969 164.128906 1287.792969 164.128906 C 1291.53125 164.816406 1295.246094 163.914062 1298.144531 161.902344 C 1301.054688 159.910156 1303.222656 156.746094 1303.910156 153.007812 L 1304.515625 149.710938 C 1308.523438 149.199219 1312.457031 148.351562 1316.277344 147.203125 L 1318.175781 149.957031 C 1319.25 151.511719 1320.609375 152.808594 1322.128906 153.78125 C 1323.648438 154.75 1325.332031 155.402344 1327.070312 155.71875 C 1328.8125 156.039062 1330.613281 156.03125 1332.378906 155.664062 C 1334.148438 155.296875 1335.875 154.582031 1337.433594 153.5 L 1350.769531 144.308594 C 1352.324219 143.234375 1353.617188 141.875 1354.589844 140.355469 C 1355.5625 138.835938 1356.210938 137.15625 1356.53125 135.414062 C 1356.851562 133.671875 1356.84375 131.871094 1356.476562 130.105469 C 1356.109375 128.339844 1355.382812 126.605469 1354.308594 125.050781 L 1352.414062 122.296875 C 1354.855469 119.148438 1357.039062 115.761719 1358.941406 112.195312 L 1362.226562 112.800781 C 1362.226562 112.800781 1362.238281 112.800781 1362.238281 112.800781 C 1364.601562 113.238281 1366.96875 113.03125 1369.113281 112.316406 C 1368.292969 111.636719 1367.488281 110.949219 1366.699219 110.25 C 1364.144531 107.980469 1363.910156 104.058594 1366.191406 101.511719 C 1367.683594 99.832031 1369.882812 99.15625 1371.941406 99.535156 C 1373.011719 99.730469 1374.058594 100.210938 1374.929688 101.003906 C 1375.894531 101.859375 1376.886719 102.695312 1377.894531 103.511719 C 1378.089844 102.917969 1378.242188 102.304688 1378.355469 101.683594 L 1381.285156 85.757812 C 1381.972656 82.023438 1381.070312 78.292969 1379.0625 75.394531 C 1377.066406 72.484375 1373.917969 70.320312 1370.167969 69.632812 C 1370.167969 69.632812 1370.167969 69.632812 1370.15625 69.628906 L 1366.867188 69.023438 C 1366.359375 65.015625 1365.507812 61.085938 1364.363281 57.261719 L 1367.113281 55.363281 C 1368.671875 54.289062 1369.964844 52.929688 1370.9375 51.410156 C 1371.910156 49.890625 1372.558594 48.210938 1372.878906 46.46875 C 1373.199219 44.726562 1373.191406 42.925781 1372.824219 41.160156 C 1372.457031 39.394531 1371.730469 37.660156 1370.65625 36.105469 L 1361.46875 22.773438 C 1360.394531 21.214844 1359.035156 19.921875 1357.515625 18.949219 C 1355.992188 17.976562 1354.3125 17.328125 1352.574219 17.007812 C 1350.832031 16.6875 1349.03125 16.695312 1347.265625 17.0625 C 1345.496094 17.429688 1343.765625 18.15625 1342.207031 19.230469 L 1339.457031 21.128906 C 1336.304688 18.683594 1332.929688 16.503906 1329.355469 14.601562 L 1329.957031 11.3125 C 1330.003906 11.058594 1330.039062 10.8125 1330.070312 10.566406 C 1328.707031 12.378906 1326.382812 13.375 1323.996094 12.933594 C 1320.636719 12.316406 1318.410156 9.089844 1319.03125 5.726562 C 1319.65625 2.320312 1321.292969 -0.6875 1323.566406 -3.003906 C 1322.152344 -3.867188 1320.558594 -4.5 1318.839844 -4.816406 C 1318.839844 -4.816406 1318.839844 -4.816406 1318.828125 -4.816406 L 1302.90625 -7.746094 C 1302.90625 -7.746094 1302.894531 -7.75 1302.894531 -7.75 C 1299.15625 -8.4375 1295.441406 -7.535156 1292.542969 -5.523438 C 1289.632812 -3.53125 1287.464844 -0.367188 1286.777344 3.371094 L 1286.171875 6.65625 C 1282.164062 7.167969 1278.222656 8.015625 1274.410156 9.164062 L 1272.511719 6.410156 C 1271.441406 4.855469 1270.078125 3.558594 1268.558594 2.585938 C 1267.039062 1.617188 1265.359375 0.964844 1263.617188 0.644531 C 1261.875 0.324219 1260.074219 0.335938 1258.308594 0.703125 C 1256.542969 1.070312 1254.808594 1.796875 1253.253906 2.867188 L 1239.921875 12.058594 C 1238.363281 13.128906 1237.070312 14.492188 1236.097656 16.011719 C 1235.125 17.53125 1234.476562 19.210938 1234.15625 20.953125 C 1233.835938 22.695312 1233.84375 24.496094 1234.210938 26.261719 C 1234.578125 28.027344 1235.292969 29.757812 1236.378906 31.316406 L 1238.277344 34.070312 C 1235.835938 37.21875 1233.652344 40.59375 1231.75 44.171875 L 1228.449219 43.566406 C 1224.710938 42.878906 1220.984375 43.777344 1218.085938 45.785156 C 1215.175781 47.78125 1213.007812 50.945312 1212.320312 54.679688 L 1209.390625 70.605469 C 1208.703125 74.34375 1209.605469 78.070312 1211.613281 80.96875 C 1213.609375 83.867188 1216.761719 86.042969 1220.496094 86.730469 C 1220.496094 86.730469 1220.507812 86.734375 1220.507812 86.734375 L 1223.808594 87.339844 C 1224.316406 91.347656 1225.164062 95.292969 1226.3125 99.101562 L 1223.5625 101 C 1222.003906 102.074219 1220.710938 103.433594 1219.738281 104.953125 C 1218.765625 106.476562 1218.117188 108.15625 1217.796875 109.894531 C 1217.476562 111.636719 1217.484375 113.4375 1217.851562 115.203125 C 1218.21875 116.972656 1218.945312 118.703125 1220.019531 120.261719 L 1229.207031 133.59375 C 1230.28125 135.148438 1231.640625 136.445312 1233.164062 137.414062 C 1234.683594 138.386719 1236.363281 139.035156 1238.105469 139.355469 C 1239.84375 139.675781 1241.644531 139.667969 1243.414062 139.300781 C 1245.179688 138.933594 1246.910156 138.21875 1248.46875 137.132812 L 1251.222656 135.238281 C 1254.371094 137.679688 1257.757812 139.863281 1261.324219 141.765625 L 1260.71875 145.050781 C 1260.03125 148.789062 1260.929688 152.515625 1262.941406 155.414062 C 1264.957031 158.328125 1268.105469 160.507812 1271.84375 161.195312 " fill-opacity="1" fill-rule="nonzero"/></g></g></g><g clip-path="url(#71df83e65a)"><g clip-path="url(#a06d50ceb2)"><g clip-path="url(#33bf085360)"><path fill="#ffffff" d="M 1324.039062 12.90625 C 1326.425781 13.34375 1328.75 12.347656 1330.113281 10.535156 C 1330.566406 7.046875 1329.648438 3.617188 1327.78125 0.917969 C 1326.710938 -0.648438 1325.285156 -2.007812 1323.625 -3.03125 C 1321.347656 -0.71875 1319.699219 2.289062 1319.085938 5.699219 C 1318.453125 9.058594 1320.679688 12.289062 1324.039062 12.90625 M 1369.152344 112.3125 C 1370.398438 111.898438 1371.5625 111.308594 1372.628906 110.574219 C 1375.050781 108.914062 1376.964844 106.4375 1377.917969 103.503906 C 1376.910156 102.6875 1375.921875 101.851562 1374.957031 100.996094 C 1374.082031 100.21875 1373.050781 99.726562 1371.96875 99.527344 C 1369.910156 99.148438 1367.710938 99.824219 1366.21875 101.503906 C 1363.949219 104.054688 1364.171875 107.972656 1366.726562 110.242188 C 1367.527344 110.941406 1368.332031 111.632812 1369.152344 112.3125 " fill-opacity="1" fill-rule="nonzero"/></g></g></g><g clip-path="url(#422366509c)"><path fill="#7662ee" d="M 1080.335938 334.648438 L 1681.347656 334.648438 L 1681.347656 468.554688 L 1080.335938 468.554688 Z M 1080.335938 334.648438 " fill-opacity="1" fill-rule="nonzero"/></g><g clip-path="url(#bcfe74c24c)"><path fill="#7662ee" d="M 1080.335938 503.054688 L 1681.09375 503.054688 L 1681.09375 640.371094 L 1080.335938 640.371094 Z M 1080.335938 503.054688 " fill-opacity="1" fill-rule="nonzero"/></g></svg>