<svg xmlns="http://www.w3.org/2000/svg" xmlns:xlink="http://www.w3.org/1999/xlink" width="1920" zoomAndPan="magnify" viewBox="0 0 1440 809.999993" height="1080" preserveAspectRatio="xMidYMid meet" version="1.0"><defs><g/><clipPath id="5d753e7c58"><path d="M 1291.882812 0 L 1440 0 L 1440 810 L 1291.882812 810 Z M 1291.882812 0 " clip-rule="nonzero"/></clipPath><clipPath id="08a9404b4c"><path d="M 882.59375 13 L 906 13 L 906 37 L 882.59375 37 Z M 882.59375 13 " clip-rule="nonzero"/></clipPath><clipPath id="3ee14989f0"><path d="M 882.59375 105 L 906 105 L 906 128.882812 L 882.59375 128.882812 Z M 882.59375 105 " clip-rule="nonzero"/></clipPath><clipPath id="032a6c8aee"><path d="M 975 105 L 999 105 L 999 128.882812 L 975 128.882812 Z M 975 105 " clip-rule="nonzero"/></clipPath><clipPath id="18c2befe74"><path d="M 1067 13 L 1091.09375 13 L 1091.09375 37 L 1067 37 Z M 1067 13 " clip-rule="nonzero"/></clipPath><clipPath id="710b8c5a9a"><path d="M 1067 105 L 1091.09375 105 L 1091.09375 128.882812 L 1067 128.882812 Z M 1067 105 " clip-rule="nonzero"/></clipPath><clipPath id="b2231f16bc"><path d="M 159 90.242188 L 190.667969 90.242188 L 190.667969 131 L 159 131 Z M 159 90.242188 " clip-rule="nonzero"/></clipPath><clipPath id="81ea4496db"><path d="M 123.917969 90.242188 L 155 90.242188 L 155 131 L 123.917969 131 Z M 123.917969 90.242188 " clip-rule="nonzero"/></clipPath><clipPath id="14cd5269a2"><path d="M 159 128 L 190.667969 128 L 190.667969 167.492188 L 159 167.492188 Z M 159 128 " clip-rule="nonzero"/></clipPath><clipPath id="1ab4808fdb"><path d="M 123.917969 128 L 155 128 L 155 167.492188 L 123.917969 167.492188 Z M 123.917969 128 " clip-rule="nonzero"/></clipPath><clipPath id="7ccb4b8f1d"><path d="M 69 679.566406 L 93 679.566406 L 93 703 L 69 703 Z M 69 679.566406 " clip-rule="nonzero"/></clipPath><clipPath id="b532aba891"><path d="M 162 679.566406 L 185.257812 679.566406 L 185.257812 703 L 162 703 Z M 162 679.566406 " clip-rule="nonzero"/></clipPath><clipPath id="ab230158e8"><path d="M 162 772 L 185.257812 772 L 185.257812 796 L 162 796 Z M 162 772 " clip-rule="nonzero"/></clipPath></defs><rect x="-144" width="1728" fill="#ffffff" y="-80.999999" height="971.999992" fill-opacity="1"/><rect x="-144" width="1728" fill="#0c120c" y="-80.999999" height="971.999992" fill-opacity="1"/><g clip-path="url(#5d753e7c58)"><path fill="#7662ee" d="M 1291.882812 873.90625 L 1291.882812 -67.851562 L 1443.800781 -67.851562 L 1443.800781 873.90625 Z M 1291.882812 873.90625 " fill-opacity="1" fill-rule="nonzero"/></g><g clip-path="url(#08a9404b4c)"><path fill="#7662ee" d="M 882.59375 24.609375 L 894.175781 13.027344 L 905.761719 24.609375 L 894.179688 36.191406 Z M 882.59375 24.609375 " fill-opacity="1" fill-rule="nonzero"/></g><g clip-path="url(#3ee14989f0)"><path fill="#7662ee" d="M 882.59375 117.265625 L 894.175781 105.679688 L 905.761719 117.265625 L 894.175781 128.847656 Z M 882.59375 117.265625 " fill-opacity="1" fill-rule="nonzero"/></g><path fill="#7662ee" d="M 928.921875 70.921875 L 940.503906 59.335938 L 952.089844 70.917969 L 940.503906 82.503906 Z M 928.921875 70.921875 " fill-opacity="1" fill-rule="nonzero"/><path fill="#7662ee" d="M 975.242188 24.617188 L 986.828125 13.03125 L 998.410156 24.617188 L 986.828125 36.199219 Z M 975.242188 24.617188 " fill-opacity="1" fill-rule="nonzero"/><g clip-path="url(#032a6c8aee)"><path fill="#7662ee" d="M 975.242188 117.273438 L 986.828125 105.6875 L 998.410156 117.269531 L 986.828125 128.855469 Z M 975.242188 117.273438 " fill-opacity="1" fill-rule="nonzero"/></g><path fill="#7662ee" d="M 1021.574219 70.925781 L 1033.15625 59.339844 L 1044.742188 70.921875 L 1033.15625 82.507812 Z M 1021.574219 70.925781 " fill-opacity="1" fill-rule="nonzero"/><g clip-path="url(#18c2befe74)"><path fill="#7662ee" d="M 1067.90625 24.613281 L 1079.488281 13.027344 L 1091.074219 24.609375 L 1079.488281 36.195312 Z M 1067.90625 24.613281 " fill-opacity="1" fill-rule="nonzero"/></g><g clip-path="url(#710b8c5a9a)"><path fill="#7662ee" d="M 1067.90625 117.265625 L 1079.488281 105.683594 L 1091.074219 117.265625 L 1079.488281 128.851562 Z M 1067.90625 117.265625 " fill-opacity="1" fill-rule="nonzero"/></g><g fill="#eeedf5" fill-opacity="1"><g transform="translate(204.616006, 122.763701)"><g><path d="M 6.84375 0.3125 C 5.675781 0.3125 4.65625 0.117188 3.78125 -0.265625 C 2.90625 -0.648438 2.222656 -1.1875 1.734375 -1.875 C 1.242188 -2.570312 1 -3.390625 1 -4.328125 C 1 -4.484375 1.003906 -4.648438 1.015625 -4.828125 C 1.035156 -5.003906 1.0625 -5.175781 1.09375 -5.34375 L 3.328125 -5.34375 C 3.285156 -5.101562 3.265625 -4.875 3.265625 -4.65625 C 3.265625 -3.738281 3.601562 -2.984375 4.28125 -2.390625 C 4.96875 -1.796875 5.898438 -1.5 7.078125 -1.5 C 8.429688 -1.5 9.460938 -1.828125 10.171875 -2.484375 C 10.890625 -3.148438 11.25 -4.023438 11.25 -5.109375 C 11.25 -5.671875 11.109375 -6.132812 10.828125 -6.5 C 10.546875 -6.863281 10.164062 -7.164062 9.6875 -7.40625 C 9.21875 -7.65625 8.691406 -7.878906 8.109375 -8.078125 C 7.523438 -8.273438 6.9375 -8.484375 6.34375 -8.703125 C 5.21875 -9.109375 4.378906 -9.660156 3.828125 -10.359375 C 3.273438 -11.066406 3 -11.875 3 -12.78125 C 3 -13.84375 3.257812 -14.773438 3.78125 -15.578125 C 4.3125 -16.378906 5.050781 -17.003906 6 -17.453125 C 6.957031 -17.898438 8.0625 -18.125 9.3125 -18.125 C 10.3125 -18.125 11.195312 -17.945312 11.96875 -17.59375 C 12.75 -17.25 13.347656 -16.765625 13.765625 -16.140625 C 14.191406 -15.515625 14.40625 -14.789062 14.40625 -13.96875 C 14.40625 -13.71875 14.378906 -13.457031 14.328125 -13.1875 L 12.109375 -13.1875 C 12.109375 -13.269531 12.113281 -13.347656 12.125 -13.421875 C 12.132812 -13.503906 12.140625 -13.585938 12.140625 -13.671875 C 12.140625 -14.328125 11.878906 -14.925781 11.359375 -15.46875 C 10.847656 -16.019531 10.066406 -16.296875 9.015625 -16.296875 C 7.890625 -16.296875 6.984375 -15.992188 6.296875 -15.390625 C 5.609375 -14.785156 5.265625 -14.023438 5.265625 -13.109375 C 5.265625 -12.460938 5.472656 -11.945312 5.890625 -11.5625 C 6.304688 -11.1875 6.863281 -10.867188 7.5625 -10.609375 C 8.257812 -10.359375 9.019531 -10.082031 9.84375 -9.78125 C 10.882812 -9.382812 11.757812 -8.832031 12.46875 -8.125 C 13.1875 -7.425781 13.546875 -6.507812 13.546875 -5.375 C 13.546875 -4.238281 13.265625 -3.242188 12.703125 -2.390625 C 12.140625 -1.546875 11.359375 -0.882812 10.359375 -0.40625 C 9.359375 0.0703125 8.1875 0.3125 6.84375 0.3125 Z M 6.84375 0.3125 "/></g></g></g><g fill="#eeedf5" fill-opacity="1"><g transform="translate(219.148095, 122.763701)"><g><path d="M 5.21875 0 C 4.164062 0 3.347656 -0.207031 2.765625 -0.625 C 2.191406 -1.039062 1.90625 -1.75 1.90625 -2.75 C 1.90625 -2.914062 1.910156 -3.097656 1.921875 -3.296875 C 1.941406 -3.492188 1.972656 -3.703125 2.015625 -3.921875 L 3.234375 -10.8125 L 1.265625 -10.8125 L 1.609375 -12.625 L 3.5625 -12.625 L 4.375 -15.65625 L 6.265625 -15.65625 L 5.703125 -12.625 L 9.4375 -12.625 L 9.109375 -10.8125 L 5.390625 -10.8125 L 4.15625 -3.921875 C 4.113281 -3.648438 4.09375 -3.410156 4.09375 -3.203125 C 4.09375 -2.679688 4.234375 -2.320312 4.515625 -2.125 C 4.796875 -1.925781 5.25 -1.828125 5.875 -1.828125 L 7.53125 -1.828125 L 7.203125 0 Z M 5.21875 0 "/></g></g></g><g fill="#eeedf5" fill-opacity="1"><g transform="translate(228.055623, 122.763701)"><g><path d="M 5.21875 0.3125 C 3.945312 0.3125 2.945312 -0.0390625 2.21875 -0.75 C 1.5 -1.457031 1.140625 -2.460938 1.140625 -3.765625 C 1.140625 -4.003906 1.148438 -4.242188 1.171875 -4.484375 C 1.191406 -4.734375 1.222656 -4.988281 1.265625 -5.25 L 2.59375 -12.625 L 4.734375 -12.625 L 3.46875 -5.46875 C 3.425781 -5.25 3.390625 -5.035156 3.359375 -4.828125 C 3.335938 -4.628906 3.328125 -4.4375 3.328125 -4.25 C 3.328125 -2.4375 4.21875 -1.53125 6 -1.53125 C 7.070312 -1.53125 8.03125 -1.898438 8.875 -2.640625 C 9.726562 -3.390625 10.300781 -4.460938 10.59375 -5.859375 L 11.78125 -12.625 L 13.921875 -12.625 L 11.703125 0 L 9.78125 0 L 10.03125 -2.296875 C 9.488281 -1.472656 8.789062 -0.832031 7.9375 -0.375 C 7.09375 0.0820312 6.1875 0.3125 5.21875 0.3125 Z M 5.21875 0.3125 "/></g></g></g><g fill="#eeedf5" fill-opacity="1"><g transform="translate(242.129607, 122.763701)"><g><path d="M 6.28125 0.3125 C 5.195312 0.3125 4.269531 0.0625 3.5 -0.4375 C 2.726562 -0.945312 2.140625 -1.625 1.734375 -2.46875 C 1.328125 -3.3125 1.125 -4.242188 1.125 -5.265625 C 1.125 -6.765625 1.441406 -8.082031 2.078125 -9.21875 C 2.710938 -10.363281 3.570312 -11.269531 4.65625 -11.9375 C 5.738281 -12.601562 6.953125 -12.9375 8.296875 -12.9375 C 9.421875 -12.9375 10.335938 -12.710938 11.046875 -12.265625 C 11.753906 -11.828125 12.28125 -11.242188 12.625 -10.515625 L 14 -18.328125 L 16.140625 -18.328125 L 12.90625 0 L 10.9375 0 L 11.125 -2.09375 C 10.632812 -1.476562 10 -0.921875 9.21875 -0.421875 C 8.4375 0.0664062 7.457031 0.3125 6.28125 0.3125 Z M 6.890625 -1.546875 C 7.859375 -1.546875 8.71875 -1.804688 9.46875 -2.328125 C 10.226562 -2.859375 10.820312 -3.566406 11.25 -4.453125 C 11.6875 -5.347656 11.90625 -6.332031 11.90625 -7.40625 C 11.90625 -8.507812 11.59375 -9.394531 10.96875 -10.0625 C 10.34375 -10.738281 9.476562 -11.078125 8.375 -11.078125 C 7.40625 -11.078125 6.535156 -10.828125 5.765625 -10.328125 C 5.003906 -9.835938 4.40625 -9.171875 3.96875 -8.328125 C 3.539062 -7.492188 3.328125 -6.539062 3.328125 -5.46875 C 3.328125 -4.351562 3.644531 -3.421875 4.28125 -2.671875 C 4.925781 -1.921875 5.796875 -1.546875 6.890625 -1.546875 Z M 6.890625 -1.546875 "/></g></g></g><g fill="#eeedf5" fill-opacity="1"><g transform="translate(257.399763, 122.763701)"><g><path d="M 4.9375 -15.421875 C 4.507812 -15.421875 4.15625 -15.554688 3.875 -15.828125 C 3.601562 -16.097656 3.46875 -16.445312 3.46875 -16.875 C 3.46875 -17.300781 3.601562 -17.648438 3.875 -17.921875 C 4.15625 -18.191406 4.507812 -18.328125 4.9375 -18.328125 C 5.34375 -18.328125 5.691406 -18.191406 5.984375 -17.921875 C 6.273438 -17.648438 6.421875 -17.300781 6.421875 -16.875 C 6.421875 -16.445312 6.273438 -16.097656 5.984375 -15.828125 C 5.691406 -15.554688 5.34375 -15.421875 4.9375 -15.421875 Z M 0.890625 0 L 3.109375 -12.625 L 5.25 -12.625 L 3.03125 0 Z M 0.890625 0 "/></g></g></g><g fill="#eeedf5" fill-opacity="1"><g transform="translate(263.024172, 122.763701)"><g><path d="M 6.484375 0.3125 C 5.429688 0.3125 4.5 0.0703125 3.6875 -0.40625 C 2.875 -0.882812 2.238281 -1.535156 1.78125 -2.359375 C 1.320312 -3.191406 1.09375 -4.132812 1.09375 -5.1875 C 1.09375 -6.3125 1.285156 -7.335938 1.671875 -8.265625 C 2.066406 -9.203125 2.601562 -10.019531 3.28125 -10.71875 C 3.957031 -11.414062 4.742188 -11.957031 5.640625 -12.34375 C 6.546875 -12.738281 7.523438 -12.9375 8.578125 -12.9375 C 9.628906 -12.9375 10.5625 -12.707031 11.375 -12.25 C 12.1875 -11.789062 12.820312 -11.148438 13.28125 -10.328125 C 13.738281 -9.515625 13.96875 -8.578125 13.96875 -7.515625 C 13.96875 -6.410156 13.773438 -5.378906 13.390625 -4.421875 C 13.015625 -3.472656 12.484375 -2.644531 11.796875 -1.9375 C 11.109375 -1.238281 10.3125 -0.6875 9.40625 -0.28125 C 8.507812 0.113281 7.535156 0.3125 6.484375 0.3125 Z M 6.765625 -1.53125 C 7.722656 -1.53125 8.578125 -1.78125 9.328125 -2.28125 C 10.085938 -2.789062 10.6875 -3.488281 11.125 -4.375 C 11.5625 -5.257812 11.78125 -6.253906 11.78125 -7.359375 C 11.78125 -8.546875 11.4375 -9.460938 10.75 -10.109375 C 10.0625 -10.765625 9.242188 -11.09375 8.296875 -11.09375 C 7.359375 -11.09375 6.515625 -10.835938 5.765625 -10.328125 C 5.023438 -9.828125 4.429688 -9.132812 3.984375 -8.25 C 3.546875 -7.363281 3.328125 -6.367188 3.328125 -5.265625 C 3.328125 -4.472656 3.484375 -3.800781 3.796875 -3.25 C 4.117188 -2.695312 4.539062 -2.269531 5.0625 -1.96875 C 5.59375 -1.675781 6.160156 -1.53125 6.765625 -1.53125 Z M 6.765625 -1.53125 "/></g></g></g><g fill="#eeedf5" fill-opacity="1"><g transform="translate(204.616006, 153.924913)"><g><path d="M 6.84375 0.3125 C 5.675781 0.3125 4.65625 0.117188 3.78125 -0.265625 C 2.90625 -0.648438 2.222656 -1.1875 1.734375 -1.875 C 1.242188 -2.570312 1 -3.390625 1 -4.328125 C 1 -4.484375 1.003906 -4.648438 1.015625 -4.828125 C 1.035156 -5.003906 1.0625 -5.175781 1.09375 -5.34375 L 3.328125 -5.34375 C 3.285156 -5.101562 3.265625 -4.875 3.265625 -4.65625 C 3.265625 -3.738281 3.601562 -2.984375 4.28125 -2.390625 C 4.96875 -1.796875 5.898438 -1.5 7.078125 -1.5 C 8.429688 -1.5 9.460938 -1.828125 10.171875 -2.484375 C 10.890625 -3.148438 11.25 -4.023438 11.25 -5.109375 C 11.25 -5.671875 11.109375 -6.132812 10.828125 -6.5 C 10.546875 -6.863281 10.164062 -7.164062 9.6875 -7.40625 C 9.21875 -7.65625 8.691406 -7.878906 8.109375 -8.078125 C 7.523438 -8.273438 6.9375 -8.484375 6.34375 -8.703125 C 5.21875 -9.109375 4.378906 -9.660156 3.828125 -10.359375 C 3.273438 -11.066406 3 -11.875 3 -12.78125 C 3 -13.84375 3.257812 -14.773438 3.78125 -15.578125 C 4.3125 -16.378906 5.050781 -17.003906 6 -17.453125 C 6.957031 -17.898438 8.0625 -18.125 9.3125 -18.125 C 10.3125 -18.125 11.195312 -17.945312 11.96875 -17.59375 C 12.75 -17.25 13.347656 -16.765625 13.765625 -16.140625 C 14.191406 -15.515625 14.40625 -14.789062 14.40625 -13.96875 C 14.40625 -13.71875 14.378906 -13.457031 14.328125 -13.1875 L 12.109375 -13.1875 C 12.109375 -13.269531 12.113281 -13.347656 12.125 -13.421875 C 12.132812 -13.503906 12.140625 -13.585938 12.140625 -13.671875 C 12.140625 -14.328125 11.878906 -14.925781 11.359375 -15.46875 C 10.847656 -16.019531 10.066406 -16.296875 9.015625 -16.296875 C 7.890625 -16.296875 6.984375 -15.992188 6.296875 -15.390625 C 5.609375 -14.785156 5.265625 -14.023438 5.265625 -13.109375 C 5.265625 -12.460938 5.472656 -11.945312 5.890625 -11.5625 C 6.304688 -11.1875 6.863281 -10.867188 7.5625 -10.609375 C 8.257812 -10.359375 9.019531 -10.082031 9.84375 -9.78125 C 10.882812 -9.382812 11.757812 -8.832031 12.46875 -8.125 C 13.1875 -7.425781 13.546875 -6.507812 13.546875 -5.375 C 13.546875 -4.238281 13.265625 -3.242188 12.703125 -2.390625 C 12.140625 -1.546875 11.359375 -0.882812 10.359375 -0.40625 C 9.359375 0.0703125 8.1875 0.3125 6.84375 0.3125 Z M 6.84375 0.3125 "/></g></g></g><g fill="#eeedf5" fill-opacity="1"><g transform="translate(219.148095, 153.924913)"><g><path d="M 0.65625 0 L 3.875 -18.328125 L 6 -18.328125 L 4.625 -10.46875 C 5.175781 -11.226562 5.867188 -11.828125 6.703125 -12.265625 C 7.546875 -12.710938 8.429688 -12.9375 9.359375 -12.9375 C 10.835938 -12.9375 11.945312 -12.476562 12.6875 -11.5625 C 13.425781 -10.65625 13.625 -9.257812 13.28125 -7.375 L 11.984375 0 L 9.84375 0 L 11.09375 -7.15625 C 11.550781 -9.78125 10.703125 -11.09375 8.546875 -11.09375 C 7.460938 -11.09375 6.488281 -10.695312 5.625 -9.90625 C 4.757812 -9.125 4.195312 -8.003906 3.9375 -6.546875 L 2.796875 0 Z M 0.65625 0 "/></g></g></g><g fill="#eeedf5" fill-opacity="1"><g transform="translate(233.222077, 153.924913)"><g><path d="M 6.484375 0.3125 C 5.429688 0.3125 4.5 0.0703125 3.6875 -0.40625 C 2.875 -0.882812 2.238281 -1.535156 1.78125 -2.359375 C 1.320312 -3.191406 1.09375 -4.132812 1.09375 -5.1875 C 1.09375 -6.3125 1.285156 -7.335938 1.671875 -8.265625 C 2.066406 -9.203125 2.601562 -10.019531 3.28125 -10.71875 C 3.957031 -11.414062 4.742188 -11.957031 5.640625 -12.34375 C 6.546875 -12.738281 7.523438 -12.9375 8.578125 -12.9375 C 9.628906 -12.9375 10.5625 -12.707031 11.375 -12.25 C 12.1875 -11.789062 12.820312 -11.148438 13.28125 -10.328125 C 13.738281 -9.515625 13.96875 -8.578125 13.96875 -7.515625 C 13.96875 -6.410156 13.773438 -5.378906 13.390625 -4.421875 C 13.015625 -3.472656 12.484375 -2.644531 11.796875 -1.9375 C 11.109375 -1.238281 10.3125 -0.6875 9.40625 -0.28125 C 8.507812 0.113281 7.535156 0.3125 6.484375 0.3125 Z M 6.765625 -1.53125 C 7.722656 -1.53125 8.578125 -1.78125 9.328125 -2.28125 C 10.085938 -2.789062 10.6875 -3.488281 11.125 -4.375 C 11.5625 -5.257812 11.78125 -6.253906 11.78125 -7.359375 C 11.78125 -8.546875 11.4375 -9.460938 10.75 -10.109375 C 10.0625 -10.765625 9.242188 -11.09375 8.296875 -11.09375 C 7.359375 -11.09375 6.515625 -10.835938 5.765625 -10.328125 C 5.023438 -9.828125 4.429688 -9.132812 3.984375 -8.25 C 3.546875 -7.363281 3.328125 -6.367188 3.328125 -5.265625 C 3.328125 -4.472656 3.484375 -3.800781 3.796875 -3.25 C 4.117188 -2.695312 4.539062 -2.269531 5.0625 -1.96875 C 5.59375 -1.675781 6.160156 -1.53125 6.765625 -1.53125 Z M 6.765625 -1.53125 "/></g></g></g><g fill="#eeedf5" fill-opacity="1"><g transform="translate(247.805068, 153.924913)"><g><path d="M 6.28125 0.3125 C 5.195312 0.3125 4.269531 0.0625 3.5 -0.4375 C 2.726562 -0.945312 2.140625 -1.625 1.734375 -2.46875 C 1.328125 -3.3125 1.125 -4.242188 1.125 -5.265625 C 1.125 -6.765625 1.441406 -8.082031 2.078125 -9.21875 C 2.710938 -10.363281 3.570312 -11.269531 4.65625 -11.9375 C 5.738281 -12.601562 6.953125 -12.9375 8.296875 -12.9375 C 9.421875 -12.9375 10.335938 -12.710938 11.046875 -12.265625 C 11.753906 -11.828125 12.28125 -11.242188 12.625 -10.515625 L 14 -18.328125 L 16.140625 -18.328125 L 12.90625 0 L 10.9375 0 L 11.125 -2.09375 C 10.632812 -1.476562 10 -0.921875 9.21875 -0.421875 C 8.4375 0.0664062 7.457031 0.3125 6.28125 0.3125 Z M 6.890625 -1.546875 C 7.859375 -1.546875 8.71875 -1.804688 9.46875 -2.328125 C 10.226562 -2.859375 10.820312 -3.566406 11.25 -4.453125 C 11.6875 -5.347656 11.90625 -6.332031 11.90625 -7.40625 C 11.90625 -8.507812 11.59375 -9.394531 10.96875 -10.0625 C 10.34375 -10.738281 9.476562 -11.078125 8.375 -11.078125 C 7.40625 -11.078125 6.535156 -10.828125 5.765625 -10.328125 C 5.003906 -9.835938 4.40625 -9.171875 3.96875 -8.328125 C 3.539062 -7.492188 3.328125 -6.539062 3.328125 -5.46875 C 3.328125 -4.351562 3.644531 -3.421875 4.28125 -2.671875 C 4.925781 -1.921875 5.796875 -1.546875 6.890625 -1.546875 Z M 6.890625 -1.546875 "/></g></g></g><g fill="#eeedf5" fill-opacity="1"><g transform="translate(263.075225, 153.924913)"><g><path d="M 3.109375 0 L 1.609375 -12.625 L 3.765625 -12.625 L 4.6875 -2.71875 L 9.390625 -12.625 L 11.8125 -12.625 L 13 -2.71875 L 17.4375 -12.625 L 19.578125 -12.625 L 13.671875 0 L 11.484375 0 L 10.203125 -10.40625 L 5.265625 0 Z M 3.109375 0 "/></g></g></g><g fill="#eeedf5" fill-opacity="1"><g transform="translate(281.526697, 153.924913)"><g><path d="M 6.265625 0.3125 C 4.703125 0.3125 3.445312 -0.171875 2.5 -1.140625 C 1.5625 -2.109375 1.09375 -3.410156 1.09375 -5.046875 C 1.09375 -6.503906 1.414062 -7.828125 2.0625 -9.015625 C 2.707031 -10.210938 3.59375 -11.164062 4.71875 -11.875 C 5.851562 -12.582031 7.140625 -12.9375 8.578125 -12.9375 C 9.679688 -12.9375 10.609375 -12.71875 11.359375 -12.28125 C 12.117188 -11.84375 12.6875 -11.257812 13.0625 -10.53125 C 13.445312 -9.800781 13.640625 -9 13.640625 -8.125 C 13.640625 -7.78125 13.597656 -7.390625 13.515625 -6.953125 C 13.441406 -6.523438 13.375 -6.148438 13.3125 -5.828125 L 3.234375 -5.828125 C 3.203125 -5.535156 3.1875 -5.28125 3.1875 -5.0625 C 3.1875 -3.863281 3.523438 -2.96875 4.203125 -2.375 C 4.878906 -1.789062 5.675781 -1.5 6.59375 -1.5 C 7.476562 -1.5 8.253906 -1.707031 8.921875 -2.125 C 9.585938 -2.539062 10.109375 -3.085938 10.484375 -3.765625 L 12.59375 -3.765625 C 12.070312 -2.597656 11.257812 -1.625 10.15625 -0.84375 C 9.050781 -0.0703125 7.753906 0.3125 6.265625 0.3125 Z M 8.296875 -11.125 C 7.273438 -11.125 6.316406 -10.8125 5.421875 -10.1875 C 4.523438 -9.570312 3.90625 -8.671875 3.5625 -7.484375 L 11.5 -7.484375 C 11.519531 -7.585938 11.535156 -7.6875 11.546875 -7.78125 C 11.554688 -7.875 11.5625 -7.960938 11.5625 -8.046875 C 11.5625 -9.015625 11.265625 -9.769531 10.671875 -10.3125 C 10.078125 -10.851562 9.285156 -11.125 8.296875 -11.125 Z M 8.296875 -11.125 "/></g></g></g><g clip-path="url(#b2231f16bc)"><path fill="#eeedf5" d="M 161.898438 90.242188 C 162.105469 90.242188 162.316406 90.273438 162.519531 90.339844 L 189.097656 98.792969 C 189.953125 99.066406 190.53125 99.863281 190.527344 100.757812 L 190.390625 128.382812 C 190.386719 129.035156 190.074219 129.644531 189.546875 130.03125 C 189.015625 130.414062 188.339844 130.523438 187.714844 130.328125 L 161.140625 121.871094 C 160.285156 121.597656 159.707031 120.800781 159.710938 119.90625 L 159.847656 92.285156 C 159.847656 91.632812 160.164062 91.019531 160.691406 90.636719 C 161.046875 90.375 161.46875 90.242188 161.898438 90.242188 " fill-opacity="1" fill-rule="nonzero"/></g><g clip-path="url(#81ea4496db)"><path fill="#7662ee" d="M 150.640625 118.417969 L 150.527344 95.09375 L 128.046875 102.246094 L 128.160156 125.570312 Z M 152.5625 90.242188 C 152.992188 90.242188 153.417969 90.375 153.769531 90.636719 C 154.300781 91.019531 154.613281 91.632812 154.617188 92.285156 L 154.75 119.90625 C 154.757812 120.800781 154.175781 121.597656 153.320312 121.871094 L 126.746094 130.328125 C 126.125 130.523438 125.445312 130.414062 124.917969 130.03125 C 124.390625 129.644531 124.074219 129.035156 124.070312 128.382812 L 123.9375 100.757812 C 123.929688 99.863281 124.511719 99.066406 125.367188 98.792969 L 151.941406 90.339844 C 152.144531 90.273438 152.355469 90.242188 152.5625 90.242188 " fill-opacity="1" fill-rule="nonzero"/></g><g clip-path="url(#14cd5269a2)"><path fill="#7662ee" d="M 161.898438 128.121094 C 162.105469 128.121094 162.316406 128.152344 162.519531 128.21875 L 189.097656 136.675781 C 189.957031 136.949219 190.535156 137.75 190.527344 138.648438 L 190.390625 152.007812 C 190.382812 152.773438 189.945312 153.472656 189.261719 153.816406 L 162.683594 167.175781 C 162.046875 167.496094 161.289062 167.460938 160.683594 167.085938 C 160.074219 166.710938 159.707031 166.046875 159.710938 165.332031 L 159.847656 130.167969 C 159.847656 129.511719 160.164062 128.898438 160.691406 128.515625 C 161.046875 128.257812 161.46875 128.121094 161.898438 128.121094 " fill-opacity="1" fill-rule="nonzero"/></g><g clip-path="url(#1ab4808fdb)"><path fill="#eeedf5" d="M 150.636719 162.007812 L 150.523438 132.976562 L 128.054688 140.125 L 128.164062 150.714844 Z M 152.5625 128.121094 C 152.992188 128.121094 153.417969 128.257812 153.773438 128.515625 C 154.300781 128.898438 154.613281 129.511719 154.617188 130.167969 L 154.75 165.332031 C 154.753906 166.046875 154.386719 166.710938 153.78125 167.085938 C 153.171875 167.460938 152.414062 167.496094 151.777344 167.175781 L 125.203125 153.816406 C 124.515625 153.472656 124.078125 152.773438 124.070312 152.007812 L 123.9375 138.648438 C 123.925781 137.75 124.507812 136.949219 125.367188 136.675781 L 151.941406 128.21875 C 152.144531 128.152344 152.355469 128.121094 152.5625 128.121094 " fill-opacity="1" fill-rule="nonzero"/></g><path fill="#7662ee" d="M 23.082031 737.460938 L 34.667969 725.875 L 46.25 737.460938 L 34.667969 749.042969 Z M 23.082031 737.460938 " fill-opacity="1" fill-rule="nonzero"/><g clip-path="url(#7ccb4b8f1d)"><path fill="#7662ee" d="M 69.40625 691.15625 L 80.988281 679.570312 L 92.574219 691.15625 L 80.992188 702.738281 Z M 69.40625 691.15625 " fill-opacity="1" fill-rule="nonzero"/></g><path fill="#7662ee" d="M 69.40625 783.800781 L 80.988281 772.21875 L 92.574219 783.800781 L 80.992188 795.382812 Z M 69.40625 783.800781 " fill-opacity="1" fill-rule="nonzero"/><path fill="#7662ee" d="M 115.738281 737.464844 L 127.324219 725.882812 L 138.90625 737.464844 L 127.324219 749.050781 Z M 115.738281 737.464844 " fill-opacity="1" fill-rule="nonzero"/><g clip-path="url(#b532aba891)"><path fill="#7662ee" d="M 162.066406 691.15625 L 173.652344 679.574219 L 185.234375 691.15625 L 173.652344 702.738281 Z M 162.066406 691.15625 " fill-opacity="1" fill-rule="nonzero"/></g><g clip-path="url(#ab230158e8)"><path fill="#7662ee" d="M 162.070312 783.796875 L 173.652344 772.214844 L 185.234375 783.796875 L 173.652344 795.378906 Z M 162.070312 783.796875 " fill-opacity="1" fill-rule="nonzero"/></g></svg>