<svg width="402" height="275" viewBox="0 0 402 275" fill="none" xmlns="http://www.w3.org/2000/svg">
<mask id="mask0_335_4192" style="mask-type:luminance" maskUnits="userSpaceOnUse" x="99" y="0" width="147" height="148">
<path d="M99 0H245.286V147.354H99V0Z" fill="white"/>
</mask>
<g mask="url(#mask0_335_4192)">
<path d="M210.484 43.7969C206.911 43.7969 203.473 42.474 200.791 40.1146C193.083 33.3385 182.999 29.2031 171.932 29.2031C147.734 29.2031 128.114 48.8333 128.114 73.0313C128.104 97.2344 147.734 116.844 171.932 116.844H230.354C238.421 116.844 244.963 123.385 244.963 131.453C244.963 139.521 238.421 146.063 230.354 146.063H171.932C131.614 146.057 98.916 113.359 98.916 73.0313C98.916 32.6875 131.614 0.0208333 171.932 0C190.4 0.0104173 207.27 6.875 220.13 18.1771C230.26 27.0885 223.979 43.7969 210.484 43.7969Z" fill="#0C120C"/>
</g>
<mask id="mask1_335_4192" style="mask-type:luminance" maskUnits="userSpaceOnUse" x="154" y="58" width="148" height="148">
<path d="M154.621 58.0205H301.288V205.369H154.621V58.0205Z" fill="white"/>
</mask>
<g mask="url(#mask1_335_4192)">
<path d="M189.684 161.364C193.257 161.364 196.695 162.687 199.377 165.041C207.085 171.817 217.158 175.952 228.231 175.952C252.497 175.952 272.153 156.192 272.038 131.911C271.924 107.713 251.939 88.2962 227.747 88.2962H169.809C161.742 88.2962 155.205 81.7598 155.205 73.6921C155.205 65.6243 161.742 59.0879 169.809 59.0879H228.231C268.549 59.0879 301.262 91.7858 301.262 132.119C301.262 172.452 268.554 205.13 228.231 205.145C209.762 205.135 192.903 198.275 180.049 186.968C169.908 178.067 176.195 161.364 189.684 161.364Z" fill="white"/>
</g>
<path d="M16.4491 274.991C24.5337 274.991 31.3863 270.231 31.3863 262.153C31.3863 246.131 11.4724 250.1 11.4724 242.596C11.4724 240.139 13.3483 238.985 15.6581 238.985C18.108 238.985 20.5649 240.356 22.7278 242.736L29.0764 236.682C25.9056 233 21.0688 230.543 15.7281 230.543C8.87551 230.543 1.8759 234.659 1.8759 243.317C1.8759 258.037 21.8598 254.503 21.8598 262.076C21.8598 264.456 19.8439 266.045 16.5261 266.045C12.5573 266.045 9.44948 263.812 7.86757 260.417L0 265.324C2.81385 270.735 8.87551 274.991 16.4491 274.991Z" fill="#0C120C"/>
<path d="M68.3368 266.915C67.1119 266.915 65.81 266.481 65.81 264.101V245.559H56.6475V248.079C54.4846 246.133 51.7408 244.979 48.4229 244.979C40.4084 244.979 34.1367 251.614 34.1367 259.986C34.1367 268.357 40.4084 274.993 48.4229 274.993C52.6087 274.993 55.9965 273.117 58.3064 270.086C60.1123 273.047 63.2831 274.993 67.1819 274.993C68.1199 274.993 68.9878 274.706 69.6318 274.419V266.915H68.3368ZM50.2218 266.845C46.4 266.845 43.3692 263.814 43.3692 259.986C43.3692 256.164 46.4 253.133 50.2218 253.133C53.9736 253.133 57.0815 256.164 57.0815 259.986C57.0815 263.814 53.9736 266.845 50.2218 266.845Z" fill="#0C120C"/>
<path d="M73.8125 274.416H83.052V224.992H73.8125V274.416Z" fill="#0C120C"/>
<path d="M119.779 259.915C119.779 250.893 113.57 244.908 104.261 244.908C94.9582 244.908 88.3926 250.97 88.3926 259.985C88.3926 269.008 94.8812 274.993 104.555 274.993C112.562 274.993 117.903 270.737 119.345 264.458H110.469C109.678 266.768 107.586 268.14 104.408 268.14C100.222 268.14 98.059 265.613 97.6951 261.504H119.779V259.915ZM104.408 251.978C107.509 251.978 109.314 253.42 110.252 255.947H98.276C99.214 253.49 101.16 251.978 104.408 251.978Z" fill="#0C120C"/>
<path d="M134.357 274.993C140.853 274.993 144.822 271.024 144.822 265.613C144.822 259.846 140.055 257.536 135.946 255.947C133.853 255.079 132.845 254.645 132.845 253.567C132.845 252.629 133.566 251.908 135.148 251.908C137.024 251.908 138.76 252.916 139.628 254.001L144.241 248.8C142.078 246.637 138.543 244.979 134.504 244.979C127.939 244.979 123.753 249.311 123.753 254.218C123.753 259.986 129.521 261.939 132.845 263.164C135.442 264.171 136.303 264.892 136.303 265.907C136.303 267.062 135.295 267.706 133.783 267.706C132.265 267.706 130.242 267.132 128.947 264.675L122.164 268.07C123.893 272.543 129.234 274.993 134.357 274.993Z" fill="#0C120C"/>
<path d="M169.927 274.991C178.515 274.991 185.949 270.161 189.631 263.091L181.406 258.828C179.313 262.944 175.051 265.688 169.927 265.688C162.64 265.688 157.09 260.06 157.09 252.767C157.09 245.48 162.64 239.852 169.927 239.852C175.051 239.852 179.313 242.596 181.406 246.705L189.631 242.449C185.949 235.38 178.515 230.543 169.927 230.543C157.664 230.543 147.703 240.503 147.703 252.767C147.703 265.037 157.664 274.991 169.927 274.991Z" fill="#0C120C"/>
<path d="M211.923 244.979C208.535 244.979 205.721 246.707 203.845 249.528V245.559H194.605V274.419H203.845V260.637C203.845 255.877 207.093 253.133 211.636 253.133C212.72 253.133 213.658 253.28 214.302 253.42V245.265C213.658 245.049 212.79 244.979 211.923 244.979Z" fill="#0C120C"/>
<path d="M249.446 266.915C248.221 266.915 246.919 266.481 246.919 264.101V245.559H237.757V248.079C235.594 246.133 232.85 244.979 229.532 244.979C221.518 244.979 215.246 251.614 215.246 259.986C215.246 268.357 221.518 274.993 229.532 274.993C233.718 274.993 237.106 273.117 239.416 270.086C241.222 273.047 244.392 274.993 248.291 274.993C249.229 274.993 250.097 274.706 250.741 274.419V266.915H249.446ZM231.331 266.845C227.509 266.845 224.479 263.814 224.479 259.986C224.479 256.164 227.509 253.133 231.331 253.133C235.083 253.133 238.191 256.164 238.191 259.986C238.191 263.814 235.083 266.845 231.331 266.845Z" fill="#0C120C"/>
<path d="M272.398 245.557H265.545V236.892C265.545 234.512 266.84 233.07 268.786 233.07H272.251V225.853C271.53 225.349 269.584 224.992 267.638 224.992C261.499 224.992 256.305 229.682 256.305 235.814V245.557H251.469V252.697H256.305V274.416H265.545V252.697H272.398V245.557Z" fill="#0C120C"/>
<path d="M292.89 252.696V245.557H286.03V234.441H276.868V245.557H272.031V252.696H276.868V264.099C276.868 270.23 282.062 274.99 288.2 274.99C290.146 274.99 292.092 274.563 292.813 274.052V266.913H289.348C287.402 266.913 286.03 265.394 286.03 263.014V252.696H292.89Z" fill="#0C120C"/>
<path d="M331.992 231.123H313.59V274.416H323.116V256.882H331.992C339.278 256.882 344.906 251.471 344.906 244.184C344.906 236.968 339.278 231.123 331.992 231.123ZM330.473 249.014H323.116V239.495H330.473C333.504 239.495 335.814 241.44 335.814 244.254C335.814 247.138 333.504 249.014 330.473 249.014Z" fill="#0C120C"/>
<path d="M365.614 244.979C362.226 244.979 359.412 246.707 357.536 249.528V245.559H348.297V274.419H357.536V260.637C357.536 255.877 360.784 253.133 365.327 253.133C366.412 253.133 367.35 253.28 367.994 253.42V245.265C367.35 245.049 366.482 244.979 365.614 244.979Z" fill="#0C120C"/>
<path d="M385.03 274.993C394.704 274.993 401.053 268.644 401.053 259.986C401.053 251.327 394.704 244.979 385.03 244.979C375.364 244.979 368.945 251.327 368.945 259.986C368.945 268.644 375.364 274.993 385.03 274.993ZM385.03 266.845C381.062 266.768 378.178 263.884 378.178 259.986C378.178 256.094 381.062 253.203 385.03 253.133C388.929 253.203 391.89 256.094 391.89 259.986C391.89 263.884 388.929 266.768 385.03 266.845Z" fill="#0C120C"/>
</svg>
