<svg width="299" height="295" viewBox="0 0 299 295" fill="none" xmlns="http://www.w3.org/2000/svg">
<mask id="mask0_322_4314" style="mask-type:luminance" maskUnits="userSpaceOnUse" x="48" y="0" width="147" height="149">
<path d="M48.7129 0.979492H194.999V148.334H48.7129V0.979492Z" fill="white"/>
</mask>
<g mask="url(#mask0_322_4314)">
<path d="M160.197 44.7764C156.624 44.7764 153.186 43.4535 150.504 41.0941C142.796 34.318 132.712 30.1826 121.645 30.1826C97.4466 30.1826 77.8268 49.8128 77.8268 74.0107C77.8164 98.2139 97.4466 117.823 121.645 117.823H180.066C188.134 117.823 194.676 124.365 194.676 132.433C194.676 140.5 188.134 147.042 180.066 147.042H121.645C81.3268 147.037 48.6289 114.339 48.6289 74.0107C48.6289 33.667 81.3268 1.00033 121.645 0.979492C140.113 0.98991 156.983 7.85449 169.842 19.1566C179.973 28.068 173.691 44.7764 160.197 44.7764Z" fill="#0C120C"/>
</g>
<mask id="mask1_322_4314" style="mask-type:luminance" maskUnits="userSpaceOnUse" x="104" y="59" width="147" height="148">
<path d="M104.334 59H251.001V206.349H104.334V59Z" fill="white"/>
</mask>
<g mask="url(#mask1_322_4314)">
<path d="M139.397 162.343C142.97 162.343 146.408 163.666 149.09 166.021C156.798 172.797 166.871 176.932 177.944 176.932C202.21 176.932 221.866 157.172 221.751 132.89C221.637 108.692 201.652 89.2757 177.46 89.2757H119.522C111.454 89.2757 104.918 82.7393 104.918 74.6715C104.918 66.6038 111.454 60.0674 119.522 60.0674H177.944C218.262 60.0674 250.975 92.7653 250.975 133.099C250.975 173.432 218.267 206.109 177.944 206.125C159.475 206.114 142.616 199.255 129.762 187.948C119.621 179.047 125.908 162.343 139.397 162.343Z" fill="#7662EE"/>
</g>
<path d="M12.3802 263.174C18.3958 263.174 23.4948 259.633 23.4948 253.622C23.4948 241.701 8.67708 244.654 8.67708 239.07C8.67708 237.242 10.0729 236.383 11.7917 236.383C13.6146 236.383 15.4427 237.404 17.0521 239.174L21.776 234.669C19.4167 231.93 15.8177 230.102 11.8438 230.102C6.74479 230.102 1.53646 233.164 1.53646 239.607C1.53646 250.56 16.4063 247.93 16.4063 253.565C16.4063 255.336 14.9063 256.518 12.4375 256.518C9.48438 256.518 7.17188 254.857 5.99479 252.331L0.140625 255.982C2.23438 260.008 6.74479 263.174 12.3802 263.174Z" fill="black"/>
<path d="M50.987 257.165C50.0755 257.165 49.1068 256.842 49.1068 255.071V241.274H42.2891V243.149C40.6797 241.701 38.638 240.842 36.1693 240.842C30.2057 240.842 25.5391 245.779 25.5391 252.008C25.5391 258.238 30.2057 263.175 36.1693 263.175C39.2839 263.175 41.8047 261.779 43.5234 259.524C44.8672 261.727 47.2266 263.175 50.1276 263.175C50.8255 263.175 51.4714 262.962 51.9505 262.748V257.165H50.987ZM37.5078 257.113C34.6641 257.113 32.4089 254.857 32.4089 252.008C32.4089 249.165 34.6641 246.91 37.5078 246.91C40.2995 246.91 42.612 249.165 42.612 252.008C42.612 254.857 40.2995 257.113 37.5078 257.113Z" fill="black"/>
<path d="M55.0664 262.748H61.9414V225.972H55.0664V262.748Z" fill="black"/>
<path d="M89.2682 251.956C89.2682 245.242 84.6484 240.789 77.7214 240.789C70.7995 240.789 65.9141 245.299 65.9141 252.008C65.9141 258.721 70.7422 263.174 77.9401 263.174C83.8984 263.174 87.8724 260.008 88.9453 255.336H82.3411C81.7526 257.055 80.1953 258.076 77.8307 258.076C74.7161 258.076 73.1068 256.195 72.8359 253.138H89.2682V251.956ZM77.8307 246.049C80.138 246.049 81.4818 247.122 82.1797 249.003H73.2682C73.9661 247.174 75.4141 246.049 77.8307 246.049Z" fill="black"/>
<path d="M100.114 263.175C104.947 263.175 107.9 260.222 107.9 256.196C107.9 251.904 104.354 250.186 101.296 249.003C99.7389 248.357 98.9889 248.035 98.9889 247.232C98.9889 246.535 99.5254 245.998 100.702 245.998C102.098 245.998 103.39 246.748 104.036 247.555L107.468 243.686C105.859 242.076 103.229 240.842 100.223 240.842C95.3379 240.842 92.2233 244.066 92.2233 247.717C92.2233 252.008 96.515 253.462 98.9889 254.373C100.921 255.123 101.562 255.66 101.562 256.415C101.562 257.274 100.812 257.753 99.6868 257.753C98.5566 257.753 97.0514 257.326 96.0879 255.498L91.041 258.024C92.3275 261.352 96.3014 263.175 100.114 263.175Z" fill="black"/>
<path d="M126.581 263.174C132.972 263.174 138.503 259.581 141.243 254.32L135.123 251.148C133.566 254.211 130.394 256.253 126.581 256.253C121.16 256.253 117.029 252.065 117.029 246.638C117.029 241.216 121.16 237.029 126.581 237.029C130.394 237.029 133.566 239.07 135.123 242.128L141.243 238.961C138.503 233.701 132.972 230.102 126.581 230.102C117.456 230.102 110.045 237.513 110.045 246.638C110.045 255.768 117.456 263.174 126.581 263.174Z" fill="black"/>
<path d="M157.831 240.842C155.31 240.842 153.216 242.128 151.82 244.227V241.274H144.945V262.748H151.82V252.493C151.82 248.951 154.237 246.91 157.617 246.91C158.424 246.91 159.122 247.019 159.602 247.123V241.055C159.122 240.894 158.477 240.842 157.831 240.842Z" fill="black"/>
<path d="M185.751 257.165C184.839 257.165 183.87 256.842 183.87 255.071V241.274H177.053V243.149C175.443 241.701 173.402 240.842 170.933 240.842C164.969 240.842 160.303 245.779 160.303 252.008C160.303 258.238 164.969 263.175 170.933 263.175C174.048 263.175 176.568 261.779 178.287 259.524C179.631 261.727 181.99 263.175 184.891 263.175C185.589 263.175 186.235 262.962 186.714 262.748V257.165H185.751ZM172.271 257.113C169.428 257.113 167.173 254.857 167.173 252.008C167.173 249.165 169.428 246.91 172.271 246.91C175.063 246.91 177.376 249.165 177.376 252.008C177.376 254.857 175.063 257.113 172.271 257.113Z" fill="black"/>
<path d="M202.825 241.274H197.726V234.826C197.726 233.055 198.689 231.982 200.137 231.982H202.715V226.612C202.179 226.237 200.731 225.972 199.283 225.972C194.715 225.972 190.851 229.461 190.851 234.024V241.274H187.252V246.586H190.851V262.748H197.726V246.586H202.825V241.274Z" fill="black"/>
<path d="M218.076 246.586V241.274H212.971V233.003H206.154V241.274H202.555V246.586H206.154V255.071C206.154 259.633 210.018 263.175 214.586 263.175C216.034 263.175 217.482 262.857 218.018 262.477V257.164H215.44C213.992 257.164 212.971 256.034 212.971 254.263V246.586H218.076Z" fill="black"/>
<path d="M247.173 230.534H233.48V262.748H240.569V249.701H247.173C252.595 249.701 256.783 245.675 256.783 240.253C256.783 234.883 252.595 230.534 247.173 230.534ZM246.043 243.847H240.569V236.763H246.043C248.298 236.763 250.017 238.211 250.017 240.305C250.017 242.451 248.298 243.847 246.043 243.847Z" fill="black"/>
<path d="M272.192 240.842C269.671 240.842 267.577 242.128 266.182 244.227V241.274H259.307V262.748H266.182V252.493C266.182 248.951 268.598 246.91 271.979 246.91C272.786 246.91 273.484 247.019 273.963 247.123V241.055C273.484 240.894 272.838 240.842 272.192 240.842Z" fill="black"/>
<path d="M286.635 263.175C293.833 263.175 298.557 258.451 298.557 252.008C298.557 245.566 293.833 240.842 286.635 240.842C279.442 240.842 274.666 245.566 274.666 252.008C274.666 258.451 279.442 263.175 286.635 263.175ZM286.635 257.113C283.682 257.055 281.536 254.91 281.536 252.008C281.536 249.113 283.682 246.962 286.635 246.91C289.536 246.962 291.739 249.113 291.739 252.008C291.739 254.91 289.536 257.055 286.635 257.113Z" fill="black"/>
<path d="M24.724 293.799H22.5156V282.695H24.724V293.799Z" fill="#7662EE"/>
<path d="M38.9004 293.799H35.8587L31.2962 285.362C31.3379 286.378 31.3587 287.518 31.3587 288.779V293.799H29.1504V282.695H32.0879L36.7546 291.279C36.7129 290.294 36.6921 289.133 36.6921 287.799V282.695H38.8796L38.9004 293.799Z" fill="#7662EE"/>
<path d="M52.0137 284.424H48.2428V293.799H46.0345V284.424H42.2637V282.695H52.0137V284.424Z" fill="#7662EE"/>
<path d="M63.3138 292.049V293.799H55.293V282.695H63.1471V284.424H57.5013V287.362H62.7513V289.112H57.5013V292.049H63.3138Z" fill="#7662EE"/>
<path d="M75.1693 291.945V293.799H67.1484V282.695H69.3568V291.945H75.1693Z" fill="#7662EE"/>
<path d="M86.8314 291.945V293.799H78.8105V282.695H81.0189V291.945H86.8314Z" fill="#7662EE"/>
<path d="M92.681 293.799H90.4727V282.695H92.681V293.799Z" fill="#7662EE"/>
<path d="M102.191 288.132H106.67V293.799H104.878L104.732 291.987L104.232 293.132C103.618 293.731 102.717 294.028 101.524 294.028C99.9824 294.028 98.7533 293.518 97.8366 292.487C96.9303 291.461 96.4824 290.065 96.4824 288.299C96.4824 286.523 96.9928 285.106 98.0241 284.049C99.0658 282.997 100.378 282.466 101.962 282.466C103.42 282.466 104.55 282.82 105.357 283.528C106.175 284.226 106.649 285.148 106.774 286.299V286.466H104.566L104.524 286.299C104.232 284.841 103.368 284.112 101.941 284.112C101.024 284.112 100.274 284.481 99.6908 285.216C99.1178 285.955 98.8366 286.94 98.8366 288.174C98.8366 289.523 99.1126 290.56 99.6699 291.278C100.238 292.002 100.972 292.362 101.878 292.362C102.587 292.362 103.175 292.148 103.649 291.716C104.133 291.273 104.43 290.653 104.545 289.862H102.191V288.132Z" fill="#7662EE"/>
<path d="M118.933 292.049V293.799H110.912V282.695H118.766V284.424H113.12V287.362H118.37V289.112H113.12V292.049H118.933Z" fill="#7662EE"/>
<path d="M132.518 293.799H129.476L124.913 285.362C124.955 286.378 124.976 287.518 124.976 288.779V293.799H122.768V282.695H125.705L130.372 291.279C130.33 290.294 130.309 289.133 130.309 287.799V282.695H132.497L132.518 293.799Z" fill="#7662EE"/>
<path d="M145.629 284.424H141.858V293.799H139.65V284.424H135.879V282.695H145.629V284.424Z" fill="#7662EE"/>
<path d="M162.008 290.987C162.144 292.32 162.415 293.258 162.821 293.799H160.383C160.118 293.065 159.936 292.237 159.842 291.32C159.686 290.07 159.186 289.414 158.342 289.341C158.133 289.331 157.842 289.32 157.467 289.32H156.175V293.799H153.967V282.695H158.029C158.639 282.695 159.175 282.716 159.633 282.758C160.508 282.872 161.206 283.169 161.738 283.654C162.279 284.128 162.55 284.815 162.55 285.716C162.55 286.414 162.352 286.987 161.967 287.445C161.576 287.904 161.04 288.232 160.363 288.424C161.321 288.789 161.868 289.643 162.008 290.987ZM156.175 287.654H157.717C158.16 287.654 158.456 287.654 158.613 287.654C159.68 287.56 160.217 287.023 160.217 286.049C160.217 285.549 160.081 285.185 159.821 284.945C159.571 284.695 159.206 284.539 158.738 284.466C158.488 284.44 158.18 284.424 157.821 284.424H156.175V287.654Z" fill="#7662EE"/>
<path d="M174.456 292.049V293.799H166.436V282.695H174.29V284.424H168.644V287.362H173.894V289.112H168.644V292.049H174.456Z" fill="#7662EE"/>
<path d="M186.977 284.424H183.206V293.799H180.997V284.424H177.227V282.695H186.977V284.424Z" fill="#7662EE"/>
<path d="M196.279 290.445H192.549L191.424 293.799H189.07L193.07 282.695H195.862L199.779 293.799H197.362L196.279 290.445ZM194.424 284.591L193.112 288.695H195.716L194.424 284.591Z" fill="#7662EE"/>
<path d="M205.286 293.799H203.078V282.695H205.286V293.799Z" fill="#7662EE"/>
<path d="M217.736 291.945V293.799H209.715V282.695H211.923V291.945H217.736Z" fill="#7662EE"/>
<path d="M230.122 282.466C231.383 282.466 232.352 282.789 233.018 283.424C233.695 284.049 234.102 284.898 234.227 285.966H231.956C231.883 285.382 231.69 284.935 231.372 284.612C231.049 284.278 230.607 284.112 230.039 284.112C229.581 284.112 229.206 284.231 228.914 284.466C228.622 284.69 228.477 285.018 228.477 285.445C228.477 285.919 228.648 286.289 228.997 286.549C229.341 286.815 229.961 287.049 230.852 287.257C232.06 287.539 232.945 287.961 233.518 288.528C234.102 289.101 234.393 289.836 234.393 290.737C234.393 291.752 233.987 292.56 233.185 293.153C232.393 293.737 231.424 294.028 230.289 294.028C228.924 294.028 227.841 293.731 227.039 293.132C226.232 292.539 225.773 291.664 225.664 290.507H227.935C228.06 291.106 228.331 291.565 228.747 291.882C229.164 292.205 229.664 292.362 230.247 292.362C230.758 292.362 231.19 292.237 231.539 291.987C231.883 291.726 232.06 291.382 232.06 290.966C232.06 290.497 231.893 290.112 231.56 289.82C231.227 289.528 230.654 289.289 229.852 289.091C228.602 288.799 227.669 288.403 227.06 287.903C226.445 287.403 226.143 286.674 226.143 285.716C226.143 284.731 226.523 283.945 227.289 283.362C228.065 282.768 229.008 282.466 230.122 282.466Z" fill="#7662EE"/>
<path d="M247.182 282.695V289.279C247.182 289.81 247.167 290.237 247.141 290.57C247.068 291.586 246.661 292.419 245.911 293.07C245.161 293.711 244.057 294.029 242.599 294.029C241.125 294.029 240.016 293.711 239.266 293.07C238.526 292.419 238.12 291.586 238.036 290.57C238.021 290.237 238.016 289.81 238.016 289.279V282.695H240.224V289.508C240.224 289.883 240.229 290.148 240.245 290.299C240.297 290.956 240.521 291.461 240.911 291.82C241.312 292.185 241.875 292.362 242.599 292.362C243.318 292.362 243.875 292.185 244.266 291.82C244.651 291.461 244.875 290.956 244.932 290.299C244.958 290.148 244.974 289.883 244.974 289.508V282.695H247.182Z" fill="#7662EE"/>
<path d="M253.609 293.799H251.4V282.695H253.609V293.799Z" fill="#7662EE"/>
<path d="M266.725 284.424H262.954V293.799H260.745V284.424H256.975V282.695H266.725V284.424Z" fill="#7662EE"/>
<path d="M278.027 292.049V293.799H270.006V282.695H277.86V284.424H272.214V287.362H277.464V289.112H272.214V292.049H278.027Z" fill="#7662EE"/>
</svg>
