<svg width="367" height="60" viewBox="0 0 367 60" fill="none" xmlns="http://www.w3.org/2000/svg">
<mask id="mask0_323_4182" style="mask-type:luminance" maskUnits="userSpaceOnUse" x="0" y="0" width="44" height="44">
<path d="M0 0H43.3896V43.0505H0V0Z" fill="white"/>
</mask>
<g mask="url(#mask0_323_4182)">
<path d="M33.0664 12.7955C32.0066 12.7955 30.9871 12.409 30.1915 11.7197C27.9051 9.74007 24.9143 8.53188 21.6316 8.53188C14.4543 8.53188 8.63492 14.267 8.63492 21.3365C8.63183 28.4076 14.4543 34.1366 21.6316 34.1366H38.9599C41.3529 34.1366 43.2932 36.0478 43.2932 38.4049C43.2932 40.7619 41.3529 42.6731 38.9599 42.6731H21.6316C9.67305 42.6716 -0.0253906 33.1187 -0.0253906 21.3365C-0.0253906 9.54986 9.67305 0.00608659 21.6316 0C27.1095 0.00304349 32.1132 2.00857 35.9274 5.31055C38.9321 7.91409 37.069 12.7955 33.0664 12.7955Z" fill="white"/>
</g>
<mask id="mask1_323_4182" style="mask-type:luminance" maskUnits="userSpaceOnUse" x="16" y="16" width="44" height="44">
<path d="M16.4961 16.9512H59.9985V60.0001H16.4961V16.9512Z" fill="white"/>
</mask>
<g mask="url(#mask1_323_4182)">
<path d="M26.8967 47.1433C27.9564 47.1433 28.976 47.5298 29.7716 48.2176C32.058 50.1972 35.0457 51.4054 38.33 51.4054C45.5273 51.4054 51.3575 45.6323 51.3235 38.5384C51.2895 31.4688 45.362 25.7961 38.1863 25.7961H21.0016C18.6087 25.7961 16.6699 23.8864 16.6699 21.5294C16.6699 19.1724 18.6087 17.2627 21.0016 17.2627H38.33C50.2885 17.2627 59.9916 26.8156 59.9916 38.5992C59.9916 50.3829 50.29 59.9297 38.33 59.9343C32.852 59.9312 27.8514 57.9272 24.0388 54.6237C21.031 52.0232 22.8956 47.1433 26.8967 47.1433Z" fill="#7662EE"/>
</g>
<path d="M80.2396 48.2028C86.2552 48.2028 91.3542 44.6611 91.3542 38.6507C91.3542 26.7288 76.5365 29.682 76.5365 24.0986C76.5365 22.2705 77.9323 21.4111 79.651 21.4111C81.474 21.4111 83.3021 22.432 84.9115 24.2028L89.6354 19.6976C87.276 16.958 83.6771 15.1299 79.7031 15.1299C74.6042 15.1299 69.3958 18.1924 69.3958 24.6351C69.3958 35.5882 84.2656 32.958 84.2656 38.5934C84.2656 40.3643 82.7656 41.5466 80.2969 41.5466C77.3438 41.5466 75.0313 39.8851 73.8542 37.3591L68 41.0101C70.0938 45.0361 74.6042 48.2028 80.2396 48.2028Z" fill="#7662EE"/>
<path d="M118.846 42.193C117.935 42.193 116.966 41.8701 116.966 40.0993V26.3024H110.148V28.1774C108.539 26.7295 106.497 25.8701 104.029 25.8701C98.0651 25.8701 93.3984 30.8076 93.3984 37.0368C93.3984 43.266 98.0651 48.2035 104.029 48.2035C107.143 48.2035 109.664 46.8076 111.383 44.5524C112.727 46.7555 115.086 48.2035 117.987 48.2035C118.685 48.2035 119.331 47.9899 119.81 47.7764V42.193H118.846ZM105.367 42.141C102.523 42.141 100.268 39.8857 100.268 37.0368C100.268 34.193 102.523 31.9378 105.367 31.9378C108.159 31.9378 110.471 34.193 110.471 37.0368C110.471 39.8857 108.159 42.141 105.367 42.141Z" fill="#7662EE"/>
<path d="M122.926 47.776H129.801V11H122.926V47.776Z" fill="#7662EE"/>
<path d="M157.128 36.984C157.128 30.2705 152.508 25.8174 145.581 25.8174C138.659 25.8174 133.773 30.3278 133.773 37.0361C133.773 43.7497 138.602 48.2028 145.799 48.2028C151.758 48.2028 155.732 45.0361 156.805 40.3643H150.201C149.612 42.083 148.055 43.1038 145.69 43.1038C142.576 43.1038 140.966 41.2236 140.695 38.1663H157.128V36.984ZM145.69 31.0778C147.997 31.0778 149.341 32.1507 150.039 34.0309H141.128C141.826 32.2028 143.273 31.0778 145.69 31.0778Z" fill="#7662EE"/>
<path d="M167.973 48.2035C172.807 48.2035 175.76 45.2503 175.76 41.2243C175.76 36.9326 172.213 35.2139 169.156 34.0316C167.598 33.3857 166.848 33.0628 166.848 32.2607C166.848 31.5628 167.385 31.0264 168.562 31.0264C169.958 31.0264 171.249 31.7764 171.895 32.5837L175.327 28.7139C173.718 27.1045 171.088 25.8701 168.083 25.8701C163.197 25.8701 160.083 29.0941 160.083 32.7451C160.083 37.0368 164.374 38.4899 166.848 39.4014C168.781 40.1514 169.421 40.6878 169.421 41.443C169.421 42.3024 168.671 42.7816 167.546 42.7816C166.416 42.7816 164.911 42.3545 163.947 40.5264L158.9 43.0524C160.187 46.3805 164.161 48.2035 167.973 48.2035Z" fill="#7662EE"/>
<path d="M194.441 48.2028C200.831 48.2028 206.363 44.609 209.102 39.3486L202.982 36.1768C201.425 39.2393 198.253 41.2809 194.441 41.2809C189.019 41.2809 184.889 37.0934 184.889 31.6663C184.889 26.2445 189.019 22.057 194.441 22.057C198.253 22.057 201.425 24.0986 202.982 27.1559L209.102 23.9893C206.363 18.7288 200.831 15.1299 194.441 15.1299C185.316 15.1299 177.904 22.5413 177.904 31.6663C177.904 40.7965 185.316 48.2028 194.441 48.2028Z" fill="#7662EE"/>
<path d="M225.69 25.8701C223.169 25.8701 221.076 27.1566 219.68 29.2555V26.3024H212.805V47.7764H219.68V37.5212C219.68 33.9795 222.096 31.9378 225.477 31.9378C226.284 31.9378 226.982 32.0472 227.461 32.1514V26.0837C226.982 25.9222 226.336 25.8701 225.69 25.8701Z" fill="#7662EE"/>
<path d="M253.61 42.193C252.699 42.193 251.73 41.8701 251.73 40.0993V26.3024H244.912V28.1774C243.303 26.7295 241.261 25.8701 238.792 25.8701C232.829 25.8701 228.162 30.8076 228.162 37.0368C228.162 43.266 232.829 48.2035 238.792 48.2035C241.907 48.2035 244.428 46.8076 246.146 44.5524C247.49 46.7555 249.85 48.2035 252.751 48.2035C253.449 48.2035 254.094 47.9899 254.574 47.7764V42.193H253.61ZM240.131 42.141C237.287 42.141 235.032 39.8857 235.032 37.0368C235.032 34.193 237.287 31.9378 240.131 31.9378C242.923 31.9378 245.235 34.193 245.235 37.0368C245.235 39.8857 242.923 42.141 240.131 42.141Z" fill="#7662EE"/>
<path d="M270.684 26.3021H265.585V19.8542C265.585 18.0833 266.549 17.0104 267.997 17.0104H270.575V11.6406C270.038 11.2656 268.59 11 267.143 11C262.575 11 258.71 14.4896 258.71 19.0521V26.3021H255.111V31.6146H258.71V47.776H265.585V31.6146H270.684V26.3021Z" fill="#7662EE"/>
<path d="M285.935 31.6146V26.3021H280.831V18.0312H274.013V26.3021H270.414V31.6146H274.013V40.099C274.013 44.6615 277.878 48.2031 282.445 48.2031C283.893 48.2031 285.341 47.8854 285.878 47.5052V42.1927H283.299C281.852 42.1927 280.831 41.0625 280.831 39.2917V31.6146H285.935Z" fill="#7662EE"/>
<path d="M315.033 15.5625H301.34V47.776H308.428V34.7292H315.033C320.454 34.7292 324.642 30.7031 324.642 25.2813C324.642 19.9115 320.454 15.5625 315.033 15.5625ZM313.902 28.875H308.428V21.7917H313.902C316.158 21.7917 317.876 23.2396 317.876 25.3333C317.876 27.4792 316.158 28.875 313.902 28.875Z" fill="#7662EE"/>
<path d="M340.051 25.8701C337.531 25.8701 335.437 27.1566 334.041 29.2555V26.3024H327.166V47.7764H334.041V37.5212C334.041 33.9795 336.458 31.9378 339.838 31.9378C340.645 31.9378 341.343 32.0472 341.822 32.1514V26.0837C341.343 25.9222 340.697 25.8701 340.051 25.8701Z" fill="#7662EE"/>
<path d="M354.494 48.2035C361.692 48.2035 366.416 43.4795 366.416 37.0368C366.416 30.5941 361.692 25.8701 354.494 25.8701C347.301 25.8701 342.525 30.5941 342.525 37.0368C342.525 43.4795 347.301 48.2035 354.494 48.2035ZM354.494 42.141C351.541 42.0837 349.395 39.9378 349.395 37.0368C349.395 34.141 351.541 31.9899 354.494 31.9378C357.395 31.9899 359.598 34.141 359.598 37.0368C359.598 39.9378 357.395 42.0837 354.494 42.141Z" fill="#7662EE"/>
</svg>
