<svg width="203" height="206" viewBox="0 0 203 206" fill="none" xmlns="http://www.w3.org/2000/svg">
<mask id="mask0_322_4315" style="mask-type:luminance" maskUnits="userSpaceOnUse" x="0" y="0" width="147" height="148">
<path d="M0 0H146.286V147.354H0V0Z" fill="white"/>
</mask>
<g mask="url(#mask0_322_4315)">
<path d="M111.484 43.7969C107.911 43.7969 104.473 42.474 101.791 40.1146C94.0827 33.3385 83.9994 29.2031 72.9316 29.2031C48.7337 29.2031 29.1139 48.8333 29.1139 73.0313C29.1035 97.2344 48.7337 116.844 72.9316 116.844H131.354C139.421 116.844 145.963 123.385 145.963 131.453C145.963 139.521 139.421 146.063 131.354 146.063H72.9316C32.6139 146.057 -0.0839844 113.359 -0.0839844 73.0313C-0.0839844 32.6875 32.6139 0.0208333 72.9316 0C91.4004 0.0104173 108.27 6.875 121.13 18.1771C131.26 27.0885 124.979 43.7969 111.484 43.7969Z" fill="#0C120C"/>
</g>
<mask id="mask1_322_4315" style="mask-type:luminance" maskUnits="userSpaceOnUse" x="55" y="58" width="148" height="148">
<path d="M55.6211 58.0205H202.288V205.369H55.6211V58.0205Z" fill="white"/>
</mask>
<g mask="url(#mask1_322_4315)">
<path d="M90.6842 161.364C94.2572 161.364 97.6947 162.687 100.377 165.041C108.085 171.817 118.158 175.952 129.231 175.952C153.497 175.952 173.153 156.192 173.038 131.911C172.924 107.713 152.939 88.2962 128.747 88.2962H70.8092C62.7415 88.2962 56.2051 81.7598 56.2051 73.6921C56.2051 65.6243 62.7415 59.0879 70.8092 59.0879H129.231C169.549 59.0879 202.262 91.7858 202.262 132.119C202.262 172.452 169.554 205.13 129.231 205.145C110.762 205.135 93.903 198.275 81.0488 186.968C70.9082 178.067 77.1947 161.364 90.6842 161.364Z" fill="#7662EE"/>
</g>
</svg>
